<svg width="18" height="10" viewBox="0 0 18 10" fill="none" xmlns="http://www.w3.org/2000/svg">
<path d="M8.20005 9.19999L0.300049 1.34999C0.233382 1.28332 0.175049 1.20394 0.125049 1.11184C0.0750488 1.01974 0.0500488 0.921053 0.0500488 0.815787C0.0500488 0.605253 0.118799 0.424988 0.256299 0.274988C0.393799 0.124988 0.575049 0.0499878 0.800049 0.0499878H17.2C17.425 0.0499878 17.6063 0.127254 17.7438 0.281787C17.8813 0.436354 17.95 0.616672 17.95 0.822739C17.95 0.874239 17.8667 1.04999 17.7 1.34999L9.80005 9.19999C9.70005 9.29999 9.58235 9.38332 9.44695 9.44999C9.31151 9.51665 9.16255 9.54999 9.00005 9.54999C8.83755 9.54999 8.68858 9.51665 8.55315 9.44999C8.41775 9.38332 8.30005 9.29999 8.20005 9.19999Z" fill="#1C1B1F"/>
</svg>
