<svg width="130" height="48" viewBox="0 0 130 48" fill="none" xmlns="http://www.w3.org/2000/svg">
<g clip-path="url(#clip0_26_52)">
<path d="M24.4384 0.702508C24.5953 0.702508 24.7476 0.728266 24.8904 0.779783C25.6656 1.06547 26.326 1.6064 26.9748 2.48219C27.4174 3.08401 27.7945 3.77481 28.12 4.5944C28.6329 5.87531 28.9537 7.21007 29.0708 8.55888C29.113 9.04127 29.1106 9.52834 29.1036 9.94751V9.98732C29.1411 10.6055 29.127 11.2729 29.0591 12.0902C29.0427 12.2915 28.8928 13.0737 28.7523 13.7738C31.3659 14.8908 33.5018 17.0054 34.6447 19.607C35.455 19.4384 36.4293 19.34 36.441 19.34C36.8485 19.3002 37.263 19.2792 37.6822 19.2792C38.4246 19.2792 39.1881 19.3424 39.9609 19.4712C41.509 19.6445 43.0453 20.1011 44.5208 20.8247C45.5418 21.3258 46.3217 21.9417 46.9096 22.7074C47.043 22.8807 47.1484 23.0446 47.2327 23.2108C47.2444 23.2249 47.2679 23.2647 47.2819 23.3139C47.6004 24.0164 47.4997 24.6955 46.9658 25.4542C46.8369 25.6368 46.6847 25.8195 46.5114 25.9975C45.7714 26.7609 44.8205 27.3627 43.6074 27.838C42.2303 28.379 40.8509 28.7068 39.5113 28.8169C38.9445 28.8871 38.4246 28.9316 37.8063 28.9316C37.4152 28.9316 36.982 28.9129 36.4714 28.8731C35.9445 28.8309 35.2232 28.6951 34.6611 28.5757C33.5252 31.182 31.3964 33.3035 28.7851 34.4276C28.7945 34.4744 28.8038 34.5212 28.8132 34.5681C28.9303 35.1769 29.0521 35.9286 29.0685 36.1159C29.1715 37.2376 29.1504 38.3335 29.0076 39.3732C28.9701 39.7947 28.9069 40.2396 28.8179 40.6846C28.5415 42.1013 28.1715 43.237 27.6539 44.258C27.0661 45.4218 26.4572 46.1922 25.6773 46.7589C25.4408 46.9298 25.1691 47.0774 24.8881 47.1828C24.682 47.26 24.4829 47.2928 24.2956 47.2928C23.7475 47.2928 23.2885 47.0165 22.9606 46.7776C22.1082 46.1571 21.4313 45.2719 20.8341 43.991C20.176 42.5813 19.7685 41.0311 19.6233 39.3849L19.614 39.2421C19.5718 38.8978 19.5414 38.5396 19.5203 38.1907C19.4828 37.535 19.5203 36.8957 19.5648 36.1885C19.5859 35.856 19.7756 34.9216 19.8833 34.4018C17.265 33.2614 15.1432 31.1211 14.019 28.496C13.1221 28.66 12.0752 28.8379 11.8457 28.8614C11.4148 28.9058 10.9768 28.9269 10.5342 28.9269C9.73558 28.9269 8.92292 28.8567 8.10558 28.7138C7.89948 28.6857 7.68402 28.6529 7.4709 28.6131C6.00249 28.3462 4.76594 27.9481 3.68863 27.3978C2.57386 26.8288 1.83146 26.2457 1.28344 25.508C1.18742 25.3793 1.09842 25.2388 1.01411 25.0865L0.932144 24.9905L0.946195 24.9578C0.901698 24.8711 0.864227 24.7891 0.831439 24.7095C0.599585 24.1405 0.686237 23.5551 1.09608 22.9181C1.55745 22.2016 2.20851 21.6091 3.1453 21.0612C4.42869 20.3072 5.91116 19.799 7.54819 19.5461C7.81283 19.5063 8.10323 19.4712 8.43345 19.4407C8.68638 19.4033 8.944 19.3728 9.19225 19.3494C9.50607 19.319 9.86673 19.3072 10.2438 19.3072C10.7028 19.3072 11.1829 19.3236 11.6326 19.3377C11.8691 19.3447 12.0939 19.3517 12.2977 19.3564C12.553 19.3611 13.5249 19.504 13.8574 19.5765C13.916 19.5906 13.9816 19.6046 14.0518 19.621C15.176 17.0522 17.2697 14.9494 19.8341 13.8183C19.8341 13.8136 19.8341 13.809 19.8318 13.8019C19.6866 13.0737 19.5859 12.3009 19.5578 12.0621C19.4055 10.746 19.4805 9.37613 19.7849 7.87043C19.799 7.77676 19.8154 7.67138 19.8341 7.56835C20.0964 6.12587 20.4524 4.96439 20.9583 3.91531C21.3517 3.1004 21.9278 2.06771 22.9044 1.33711C23.1527 1.15211 23.4337 1.01864 23.7077 0.889843C23.7944 0.850034 23.881 0.807884 23.9677 0.765733C24.0614 0.718899 24.1668 0.693141 24.2698 0.693141H24.4408M21.8974 13.1392C22.703 12.9589 23.5274 12.8699 24.3541 12.8699C25.148 12.8699 25.942 12.9519 26.7148 13.1182C26.8694 12.3032 27.0146 11.4673 27.0216 11.4157C27.1645 10.2894 27.1364 9.11152 26.9303 7.82125C26.6118 5.81208 25.7452 3.50083 25.5181 3.10508L25.4946 3.07464C25.1434 2.60396 24.7897 2.36511 24.4408 2.36511C23.86 2.36511 23.6281 2.66016 23.3845 2.97161C23.3377 3.03249 23.2909 3.09103 23.244 3.14489C22.237 4.3134 22.0847 5.31096 21.8763 6.6949C21.8342 6.97824 21.7873 7.27798 21.7335 7.59879C21.5414 8.71109 21.6023 11.3525 21.6117 11.4696C21.6327 11.6429 21.7452 12.4203 21.895 13.1392M24.3143 19.6C24.333 19.5929 24.4009 19.5297 24.4431 19.4899C24.4736 19.4618 24.5063 19.4337 24.5368 19.4079C24.5344 19.4079 24.5321 19.4103 24.5298 19.4103C24.5251 19.4103 24.5298 19.4009 24.5321 19.3939C24.5391 19.3752 24.5462 19.3588 24.5555 19.3424C25.1761 18.0872 25.7171 16.7361 26.1644 15.324C26.1855 15.2585 26.2043 15.1929 26.2253 15.1297C25.6117 15.0009 24.9818 14.9377 24.3518 14.9377C23.7218 14.9377 23.0871 15.0009 22.4712 15.1297C22.7616 16.0523 23.1222 17.1506 23.3283 17.6868C23.5508 18.2675 23.8365 18.8389 24.1105 19.3939L24.148 19.4688C24.1761 19.5274 24.2768 19.5953 24.3143 19.5976M27.2628 22.5669C27.2628 22.5669 27.2699 22.5645 27.2745 22.5622C27.3214 22.5458 27.3612 22.5341 27.3963 22.5107C29.0474 21.5295 30.8039 20.7357 32.6189 20.1503C31.7032 18.2371 30.1598 16.7056 28.2418 15.8017C28.0497 16.3661 27.8436 16.9585 27.6118 17.5486C27.1551 18.7148 26.579 19.8786 25.8975 21.0097C25.8249 21.1314 25.8342 21.2087 25.9396 21.3141L26.1925 21.567C26.4923 21.8667 26.7898 22.1641 27.0942 22.4592C27.1317 22.4943 27.1855 22.5247 27.2441 22.5575C27.2488 22.5599 27.2558 22.5622 27.2605 22.5669M21.3447 22.5435C21.4126 22.5435 21.4805 22.5177 21.5297 22.4662C21.7147 22.2765 21.9021 22.0892 22.0894 21.9018C22.2862 21.7051 22.4829 21.5108 22.6749 21.3117C22.7101 21.2766 22.7405 21.2204 22.7733 21.1619C22.7756 21.1572 22.778 21.1525 22.7803 21.1478L22.7663 21.1174C22.7335 21.0448 22.703 20.9792 22.6679 20.916C22.5766 20.7474 22.4829 20.5835 22.3915 20.4172C22.2253 20.1198 22.0543 19.8154 21.8974 19.5063C21.2908 18.3214 20.7803 17.0897 20.3798 15.8439C18.4898 16.7548 16.9722 18.2816 16.0706 20.176C17.8247 20.7427 19.5507 21.5272 21.2089 22.5107C21.251 22.5364 21.2978 22.5482 21.3447 22.5482M38.3286 26.8779C39.9797 26.8779 41.6612 26.5571 43.7128 25.864C44.3873 25.6368 45.1718 24.9414 45.2046 24.9133C45.4692 24.651 45.6004 24.3957 45.5887 24.1522C45.57 23.7096 45.1086 23.3279 44.7713 23.0493L44.6941 22.9837C43.1343 21.6817 42.3474 21.4569 40.0382 21.2485C39.6237 21.211 39.2841 21.1947 38.9562 21.1947C38.3942 21.1947 37.8696 21.2438 37.0686 21.3164L36.8297 21.3375C36.3239 21.3843 35.811 21.4663 35.2981 21.5857C35.4855 22.4076 35.5815 23.2507 35.5815 24.096C35.5815 24.9414 35.4948 25.7141 35.3215 26.5033C36.1154 26.6719 36.6963 26.7772 37.0452 26.81C37.4761 26.8522 37.9 26.8733 38.3286 26.8733M10.2087 26.8873C10.7052 26.8873 11.197 26.8592 11.6794 26.803C11.7075 26.8007 11.8106 26.7843 11.9441 26.7632C12.2064 26.7234 12.5811 26.6648 12.7591 26.6461C12.8972 26.6297 13.1057 26.5923 13.382 26.5337C13.204 25.7352 13.115 24.9156 13.115 24.0937C13.115 23.2717 13.1993 22.5037 13.3656 21.7286C12.5764 21.5717 11.7544 21.4171 11.5623 21.3984C11.0939 21.3492 10.6255 21.3258 10.1524 21.3258C8.53415 21.3258 6.87604 21.6091 5.12191 22.1805C4.56609 22.3616 4.02197 22.6145 3.48957 22.9392L3.3912 22.9978C3.24132 23.0891 2.91579 23.4708 2.85021 23.9298C2.79869 24.3021 2.91813 24.651 3.21087 24.9718C4.23665 26.0935 5.55986 26.3089 7.08916 26.5548C7.31868 26.5923 7.55287 26.6297 7.78707 26.6719C8.60207 26.8147 9.41005 26.8873 10.204 26.8873M33.2957 26.049C33.4362 25.4097 33.5065 24.7517 33.5065 24.0937C33.5065 23.4357 33.4386 22.8104 33.3051 22.1852H33.3004C32.7337 22.3678 32.1458 22.5528 31.5861 22.773C30.9561 23.0188 30.3238 23.2975 29.7125 23.5668C29.4877 23.6651 29.2629 23.7658 29.038 23.8642C28.846 23.9485 28.7968 23.9953 28.7945 24.0913C28.7945 24.1897 28.839 24.2271 29.024 24.3185L29.0591 24.3349C29.1387 24.3747 29.216 24.4145 29.2933 24.4543C29.394 24.5058 29.4924 24.5573 29.5931 24.6065C30.6634 25.131 31.9327 25.7094 33.2957 26.0466M15.3891 26.0373C16.9676 25.6181 18.4126 24.9226 19.6233 24.2904C19.703 24.2506 19.7873 24.1382 19.792 24.096C19.7873 24.0585 19.7077 23.9485 19.6233 23.9016C19.3119 23.726 18.9746 23.5762 18.6491 23.431L18.5554 23.3888C17.5039 22.9205 16.4359 22.5177 15.375 22.1946C15.2439 22.8151 15.176 23.4544 15.176 24.0937C15.176 24.7329 15.2462 25.4003 15.3844 26.0373M24.2979 25.7586C24.2979 25.7586 24.3073 25.7539 24.312 25.7516C24.3611 25.7305 24.408 25.7094 24.4267 25.6884C24.9888 25.1404 25.4783 24.651 25.9256 24.1967C25.9818 24.1405 25.9818 24.0492 25.9256 23.993C25.3893 23.4474 24.9068 22.9603 24.4454 22.5083C24.3916 22.4568 24.3447 22.4311 24.2979 22.4311C24.2511 22.4311 24.2089 22.4545 24.1597 22.5037C23.6679 22.986 23.1784 23.4731 22.6937 23.9625C22.6234 24.0351 22.6234 24.1522 22.6937 24.2225C23.1738 24.7072 23.6585 25.1872 24.1457 25.6626C24.1761 25.6907 24.2253 25.7188 24.2815 25.7492C24.2862 25.7516 24.2909 25.7539 24.2956 25.7563M20.3704 32.3481C20.9536 30.5591 21.7264 28.845 22.6749 27.2526C22.7077 27.1987 22.7311 27.1402 22.7569 27.0746C22.7616 27.0653 22.7663 27.0536 22.7686 27.0442C22.7686 27.0395 22.7639 27.0348 22.7616 27.0325C22.7311 26.9739 22.7007 26.9177 22.6656 26.8826C22.2932 26.4986 21.9138 26.1169 21.5555 25.7656C21.4571 25.6673 21.4056 25.6251 21.3494 25.6251C21.3002 25.6251 21.2463 25.6556 21.1526 25.7118C19.5882 26.6461 17.8762 27.4212 16.0589 28.0183C16.9605 29.9128 18.4805 31.4396 20.3681 32.3481M28.2324 32.3809C30.1481 31.477 31.6891 29.9479 32.6025 28.0371C30.846 27.4704 29.0989 26.6836 27.4057 25.6954C27.3612 25.6696 27.3144 25.6509 27.2605 25.6298C27.2558 25.6275 27.2488 25.6251 27.2417 25.6228C27.2371 25.6228 27.2347 25.6275 27.23 25.6298C27.1715 25.6603 27.1176 25.6907 27.0825 25.7258C26.8483 25.953 26.6164 26.1871 26.3869 26.419C26.2652 26.5407 26.1434 26.6648 26.0216 26.7866C25.867 26.9412 25.8428 27.1074 25.949 27.2854C26.7453 28.6295 27.4244 30.0744 27.9654 31.5777C28.0614 31.8447 28.1481 32.114 28.2371 32.3833M24.3424 33.2544C24.9724 33.2544 25.6024 33.1911 26.2183 33.0623C25.7195 31.477 25.1574 30.0743 24.5017 28.7864C24.4548 28.6974 24.3424 28.6108 24.2932 28.6061C24.2581 28.6108 24.155 28.6857 24.1293 28.7372C23.4244 30.1282 22.8412 31.5777 22.3962 33.0483C23.0332 33.1865 23.689 33.2567 24.3424 33.2567M24.237 45.5646C24.3822 45.5646 24.5391 45.5436 24.7031 45.5038C24.9958 45.4312 25.2839 45.1033 25.5017 44.827C26.8319 43.1386 26.9279 41.4245 27.0474 39.2514L27.0638 38.9494C27.0965 38.3897 27.0614 37.809 27.0263 37.2493C27.0169 37.0807 27.0052 36.9097 26.9982 36.7411C26.9865 36.5 26.8811 35.8981 26.7054 35.0762C25.9303 35.2425 25.1363 35.3268 24.3401 35.3268C23.5438 35.3268 22.7147 35.2401 21.9255 35.0668C21.7452 35.952 21.614 36.6404 21.5976 36.7739C21.4079 38.3077 21.532 39.9633 21.977 41.8296C22.0285 42.0404 22.0707 42.2301 22.1082 42.4034C22.3236 43.3634 22.4243 43.799 23.1058 44.9043C23.3752 45.3422 23.7546 45.5646 24.237 45.5646ZM24.4384 0H24.2675C24.0567 0 23.8436 0.0515172 23.6515 0.145185C23.5719 0.184994 23.4899 0.222461 23.4103 0.262269C23.1176 0.400429 22.7897 0.554981 22.4829 0.784467C21.3845 1.60874 20.7545 2.73275 20.3259 3.62026C19.792 4.72788 19.4173 5.94556 19.1432 7.45126C19.1245 7.55664 19.1081 7.65967 19.0941 7.75568C18.7779 9.32696 18.7006 10.7648 18.8599 12.1487C18.8809 12.336 18.9489 12.8512 19.0472 13.4179C16.731 14.577 14.8036 16.5089 13.6513 18.8272C13.2017 18.7523 12.56 18.6633 12.3141 18.6586C12.1127 18.6539 11.8902 18.6469 11.656 18.6399C11.1853 18.6235 10.7098 18.6094 10.2438 18.6094C9.79647 18.6094 9.43113 18.6235 9.12199 18.6539C8.86671 18.6797 8.60676 18.7101 8.34914 18.7476C8.00955 18.778 7.71212 18.8155 7.43812 18.8576C5.71209 19.1246 4.14766 19.6632 2.78464 20.4617C1.74949 21.0705 1.02348 21.7309 0.498881 22.5458C-0.032745 23.3748 -0.145159 24.1897 0.171006 24.9718L0.107773 25.1193L0.39115 25.4542L0.428622 25.4987C0.517616 25.6532 0.613637 25.8008 0.711999 25.9366C1.32794 26.7655 2.14528 27.4118 3.36076 28.0347C4.49895 28.6178 5.80108 29.0346 7.33741 29.3156C7.55521 29.3554 7.77536 29.3906 7.99082 29.4187C8.84095 29.5662 9.69343 29.6388 10.5272 29.6388C10.9909 29.6388 11.4569 29.6154 11.9089 29.5709C12.1384 29.5475 12.9183 29.4163 13.5998 29.2946C14.7544 31.669 16.7099 33.6407 19.0753 34.8139C18.9442 35.4743 18.8692 35.9216 18.8552 36.151C18.806 36.884 18.7685 37.5443 18.8083 38.2398C18.8294 38.6028 18.8622 38.9634 18.9044 39.3193L18.9137 39.4435V39.4505V39.4575C19.066 41.1857 19.4945 42.8132 20.1878 44.2978C20.8365 45.6911 21.5836 46.6629 22.5367 47.356C22.9208 47.6347 23.518 48.0047 24.2839 48.0047C24.5696 48.0047 24.8506 47.9532 25.1246 47.8478C25.4642 47.719 25.7944 47.5434 26.0801 47.335C26.9537 46.7004 27.6282 45.8527 28.2699 44.5835C28.8155 43.5016 29.2043 42.3073 29.4947 40.8274C29.5861 40.3614 29.6516 39.9001 29.6914 39.4598C29.839 38.371 29.8601 37.2282 29.7523 36.0597C29.7359 35.8747 29.6516 35.3478 29.5603 34.842C31.921 33.6852 33.8812 31.7346 35.0475 29.3789C35.5955 29.4842 36.0475 29.5498 36.3988 29.5779C36.9117 29.6177 37.3661 29.6388 37.79 29.6388C38.5042 29.6388 39.0897 29.5803 39.5675 29.5217C40.9727 29.4046 42.413 29.0604 43.8486 28.4984C45.1578 27.9856 46.1882 27.3299 47.0009 26.4916C47.1976 26.2878 47.3756 26.0771 47.5255 25.864C48.1906 24.9226 48.3241 23.9813 47.926 23.068C47.8979 22.986 47.8604 22.9158 47.8276 22.8619C47.7269 22.6699 47.6051 22.4826 47.4552 22.2859C46.7995 21.4312 45.9376 20.7474 44.8182 20.1994C43.2748 19.4431 41.6706 18.9654 40.0453 18.7804C39.2443 18.6492 38.4457 18.5837 37.6705 18.5837C37.2279 18.5837 36.7876 18.6047 36.359 18.6492C36.3239 18.6516 35.7056 18.7171 35.0405 18.8272C33.8695 16.4738 31.9046 14.5279 29.5416 13.3757C29.6306 12.9215 29.7359 12.3618 29.7523 12.1581C29.8226 11.308 29.839 10.6079 29.8015 9.95687V9.94985V9.94282V9.9358C29.8062 9.50727 29.8085 9.01083 29.7664 8.50971C29.6423 7.09064 29.305 5.69031 28.7687 4.34384C28.4198 3.46805 28.0146 2.72573 27.5345 2.07474C26.8015 1.08186 26.038 0.463655 25.127 0.131135C24.9068 0.0515172 24.6726 0.00936677 24.4337 0.00936677L24.4384 0ZM22.3119 11.4157C22.3025 11.1605 22.2557 8.71578 22.4267 7.72992C22.4852 7.39975 22.5321 7.08596 22.5719 6.81198C22.778 5.45146 22.9021 4.62952 23.7756 3.61557C23.8295 3.55469 23.8834 3.48678 23.9372 3.41653C24.1597 3.13318 24.2089 3.07932 24.4408 3.07932C24.4993 3.07932 24.675 3.16597 24.9232 3.49849C25.1199 3.88487 25.9256 6.00878 26.2324 7.94302C26.4267 9.16538 26.4548 10.273 26.3214 11.3314C26.3096 11.4017 26.2394 11.8115 26.1481 12.3126C25.5555 12.2236 24.9537 12.1768 24.3494 12.1768C23.7124 12.1768 23.0754 12.2283 22.4501 12.3267C22.3775 11.9075 22.326 11.5492 22.3072 11.4134L22.3119 11.4157ZM23.3892 15.7057C23.7077 15.6706 24.0286 15.6519 24.3518 15.6519C24.675 15.6519 24.9888 15.6706 25.3049 15.7057C25.0099 16.5745 24.6796 17.4152 24.3166 18.2207C24.1972 17.9631 24.0848 17.7055 23.9864 17.4479C23.8365 17.0592 23.6047 16.3661 23.3916 15.7057H23.3892ZM26.6844 21.0752C27.3073 20.0074 27.8389 18.9138 28.2675 17.8179C28.3987 17.4807 28.5228 17.1459 28.6376 16.818C29.8554 17.5369 30.8788 18.5532 31.6072 19.7662C30.1364 20.2931 28.7102 20.9535 27.3495 21.7379C27.1457 21.5365 26.942 21.3328 26.7429 21.1338L26.6914 21.0823L26.6844 21.0752ZM17.0823 19.7873C17.7966 18.593 18.7966 17.5861 19.9863 16.8649C20.3494 17.8741 20.7826 18.8694 21.2768 19.8341C21.4384 20.1503 21.6117 20.4594 21.778 20.7568L21.785 20.7685C21.8412 20.8668 21.8951 20.9652 21.9513 21.0635C21.8342 21.1806 21.7171 21.2977 21.6 21.4148C21.4922 21.5225 21.3845 21.6302 21.2768 21.7379C19.9184 20.9535 18.5109 20.3001 17.0847 19.785L17.0823 19.7873ZM36.1248 22.1477C36.3824 22.1056 36.6424 22.0704 36.8953 22.047L37.1342 22.026C37.9164 21.9534 38.4293 21.9065 38.9586 21.9065C39.2701 21.9065 39.5933 21.9229 39.9773 21.958C42.1413 22.1524 42.7947 22.321 44.2467 23.534L44.324 23.5996C44.4716 23.7213 44.8557 24.0375 44.8884 24.1873C44.8814 24.2061 44.851 24.2833 44.7268 24.4098C44.5325 24.5807 43.9306 25.0584 43.4926 25.206C41.4879 25.8827 39.8954 26.1825 38.3309 26.1825C37.9281 26.1825 37.53 26.1637 37.1155 26.1216C36.9539 26.1052 36.6611 26.0654 36.1412 25.9647C36.2372 25.3512 36.2864 24.7283 36.2864 24.1077C36.2864 23.452 36.2325 22.794 36.1248 22.1477ZM3.78465 23.5996L3.86194 23.5527C4.34751 23.2561 4.84166 23.0259 5.3444 22.8619C7.03764 22.3116 8.61144 22.0423 10.1571 22.0423C10.6021 22.0423 11.0541 22.0658 11.4967 22.1103C11.5857 22.1196 11.9628 22.1852 12.5576 22.2976C12.4663 22.8947 12.4195 23.5012 12.4195 24.1077C12.4195 24.7142 12.4687 25.3582 12.567 25.9764C12.3773 26.0021 12.108 26.042 11.8457 26.0818C11.7262 26.1005 11.6326 26.1145 11.6021 26.1192C11.1501 26.1707 10.6841 26.1988 10.2157 26.1988C9.46391 26.1988 8.69107 26.1309 7.92056 25.9951C7.68168 25.953 7.44514 25.9155 7.21095 25.878C5.7519 25.6415 4.602 25.4565 3.74016 24.5128C3.54812 24.3021 3.54109 24.1522 3.55748 24.0445C3.58559 23.8501 3.7261 23.6581 3.78934 23.5996H3.78465ZM30.2067 24.1358C30.7453 23.897 31.298 23.6581 31.8484 23.4427C32.1411 23.3279 32.4479 23.2226 32.7547 23.1195C32.7922 23.4474 32.8133 23.7775 32.8133 24.1077C32.8133 24.4637 32.7899 24.8196 32.7454 25.1732C31.832 24.8852 30.9725 24.5011 30.2067 24.1335V24.1358ZM15.9582 25.1545C15.916 24.8079 15.8926 24.459 15.8926 24.1077C15.8926 23.7799 15.9113 23.452 15.9488 23.1289C16.7287 23.3935 17.5086 23.7026 18.2814 24.0468L18.3751 24.089C18.3985 24.1007 18.4243 24.1101 18.4477 24.1218C17.6819 24.4964 16.8434 24.8664 15.9582 25.1568V25.1545ZM23.5719 24.1077C23.8155 23.8618 24.0637 23.616 24.3166 23.3677C24.5532 23.6019 24.7991 23.8478 25.0567 24.1101C24.8225 24.3466 24.5766 24.5901 24.3166 24.8477C24.0731 24.6065 23.8225 24.3606 23.5719 24.1101V24.1077ZM17.0847 28.4281C18.5648 27.8919 19.9723 27.2362 21.2815 26.4752C21.4993 26.6906 21.7241 26.9177 21.9489 27.1449C21.1784 28.475 20.5227 29.8847 19.9934 31.3506C18.8013 30.6293 17.799 29.6224 17.087 28.4281H17.0847ZM26.6867 27.1449C26.7593 27.0723 26.8296 26.9997 26.9022 26.9271L26.9186 26.9107C27.0591 26.7679 27.2043 26.6227 27.3495 26.4799C28.7359 27.269 30.1669 27.9317 31.6095 28.4492C30.8835 29.6552 29.8647 30.6691 28.654 31.388C28.6493 31.3763 28.6446 31.3646 28.6422 31.3529C28.113 29.8847 27.4572 28.4703 26.689 27.1449H26.6867ZM23.326 32.5027C23.6117 31.6597 23.9419 30.8237 24.3166 30.0064C24.675 30.7909 25.0028 31.6199 25.3073 32.5121C24.9911 32.5472 24.675 32.5659 24.3565 32.5659C24.0122 32.5659 23.6679 32.5448 23.326 32.5027ZM24.2511 44.8738C24.0778 44.8738 23.8951 44.834 23.7194 44.5483C23.0988 43.5438 23.0192 43.1925 22.8084 42.2605C22.7686 42.0849 22.7264 41.8929 22.6749 41.6774C22.2487 39.8931 22.1292 38.3194 22.3096 36.8699C22.3166 36.8091 22.3752 36.4953 22.4946 35.8935C23.1082 35.9895 23.7311 36.0386 24.3588 36.0386C24.9864 36.0386 25.5743 35.9918 26.1738 35.9005C26.2675 36.3899 26.3096 36.6756 26.3143 36.788C26.3214 36.9308 26.3307 37.076 26.3378 37.2212L26.3424 37.3032C26.3752 37.8441 26.4104 38.4014 26.3799 38.9236L26.3635 39.2257C26.2464 41.3543 26.1598 42.8904 24.9677 44.4032C24.7007 44.7427 24.5789 44.8176 24.5438 44.834C24.4384 44.8598 24.3401 44.8715 24.2534 44.8715L24.2511 44.8738Z" fill="white"/>
<path d="M77.4745 33.5518C76.533 33.4183 75.8937 33.2426 75.5587 33.0296C75.2215 32.8165 74.9194 32.3739 74.6524 31.7018L65.0129 7.09766H64.4087L55.0923 27.8404L54.1649 30.0509C53.5724 31.4723 53.0829 32.3364 52.6918 32.6455C52.3007 32.9546 51.4482 33.2426 50.1321 33.5096L49.5278 33.629V34.5563H58.2399V33.629C57.9706 33.5752 57.7692 33.5494 57.6357 33.5494C56.7739 33.4956 56.2657 33.4417 56.1041 33.3878C55.5397 33.2263 55.2563 32.8797 55.2563 32.3434C55.2563 31.943 55.35 31.5004 55.5396 31.018L58.1205 24.4754L58.6053 23.3467L63.2424 12.1768L67.5984 23.3467L68.041 24.4754L70.5821 31.381C70.7975 31.9711 70.9053 32.3856 70.9053 32.6244C70.9053 32.8633 70.7694 33.0319 70.5025 33.1256C70.2331 33.2192 69.5071 33.3597 68.3244 33.5471C68.2448 33.5471 68.0692 33.5752 67.7998 33.6267V34.554H78.0834V33.6267C77.7063 33.5728 77.5049 33.5471 77.4792 33.5471L77.4745 33.5518Z" fill="white"/>
<path d="M88.0321 20.3516L93.716 14.8089L97.7418 10.7156C98.9035 9.53069 99.4843 8.72983 99.4843 8.31769C99.4843 7.90555 99.1236 7.62923 98.4046 7.49107C98.3484 7.49107 97.8519 7.46297 96.9104 7.40912V6.4537H106.288V7.40912C104.517 7.54727 102.775 8.38794 101.058 9.93112L91.3483 18.6984L96.3694 24.4894C96.5357 24.6814 97.0322 25.206 97.8636 26.0607L101.266 29.5756C103.646 32.0297 105.789 33.3106 107.698 33.423V34.3784H101.515C100.573 34.3784 99.606 33.7976 98.6107 32.6362L88.7347 21.2251L88.0297 21.8878V26.0232C88.0297 26.2714 88.0719 27.6507 88.1538 30.1587C88.21 31.4536 88.367 32.2334 88.6316 32.4957C88.8939 32.7579 89.7323 33.0272 91.1422 33.3012L91.8073 33.4253V34.3807H80.519V33.4253L81.1842 33.3012C82.8985 32.971 83.8259 32.5706 83.9641 32.1023C84.046 31.7721 84.1163 31.1234 84.1725 30.1587C84.2545 28.3392 84.2966 26.9599 84.2966 26.0232V14.8159C84.2966 14.6777 84.2545 13.2985 84.1725 10.6805C84.1163 9.3574 83.95 8.53781 83.6737 8.21934C83.3973 7.90321 82.5659 7.66202 81.1842 7.49576L80.519 7.4138V6.45839H91.8073V7.4138L91.1422 7.49576C90.3951 7.57772 89.8565 7.67373 89.5239 7.78379C88.833 7.97581 88.4302 8.29427 88.3201 8.73451C88.2639 8.95463 88.21 9.60328 88.1538 10.6781C88.0719 12.4438 88.0297 13.8207 88.0297 14.8135V20.3563L88.0321 20.3516Z" fill="white"/>
<path d="M65.2046 26.7857L62.9186 24.6325C62.8932 24.6085 62.8531 24.6097 62.8292 24.6351L60.6757 26.9209C60.6518 26.9463 60.653 26.9863 60.6784 27.0102L62.9644 29.1634C62.9898 29.1874 63.0298 29.1862 63.0538 29.1608L65.2073 26.875C65.2312 26.8496 65.23 26.8096 65.2046 26.7857Z" fill="white"/>
<path d="M127.45 33.0389H110.449V34.4744H127.45V33.0389Z" fill="white"/>
<path d="M129.192 23.3256C127.974 25.9061 126.871 27.5008 125.88 28.1097C124.89 28.7185 122.866 29.0229 119.81 29.0229H117.262C116.384 29.0229 115.869 28.9012 115.712 28.6553C115.555 28.4094 115.477 27.6226 115.477 26.2949V18.8412L122.707 18.9092C123 18.9466 124.89 18.8904 125.201 21.6115V22.6395H125.958V14.2094H125.201V15.3826C125.168 15.5957 124.88 17.1154 123.342 17.2606C123.328 17.2606 123.316 17.2606 123.304 17.2653C120.663 17.3098 118.14 17.2021 115.477 17.2372V10.6805C115.477 9.54473 115.52 8.85159 115.604 8.59634C115.831 7.90086 116.424 7.55429 117.386 7.55429H117.897C118.037 7.55429 118.548 7.566 119.426 7.58942C121.379 7.63625 122.695 7.75099 123.375 7.93599C125.356 8.46989 126.459 9.77656 126.686 11.863H127.494C127.379 10.4229 127.323 9.32695 127.323 8.57059C127.323 7.8634 127.337 6.99931 127.365 6.45135H107.667V7.40911H108.498C109.857 7.52385 110.625 7.86574 110.936 8.14206C111.248 8.41838 111.431 9.10918 111.489 10.2145C111.573 12.3079 111.616 13.46 111.616 13.6661V25.6111L111.571 26.4752C111.512 27.557 111.332 28.2197 111.028 28.4609C110.723 28.7021 109.864 28.9152 108.447 29.1002L107.667 29.2032V30.0017H129.489C129.489 28.5195 129.658 26.2949 130 23.3303H129.194L129.192 23.3256Z" fill="white"/>
<path d="M63.9567 42.7265L63.3595 42.5181C62.9848 42.394 62.8841 42.3144 62.8841 42.0966C62.8841 41.9233 62.9005 41.7758 63.0878 41.6517C63.2775 41.5252 63.3501 41.5393 63.5586 41.5463C63.8302 41.5557 63.9028 41.6025 64.0808 41.7008C64.2846 41.8156 64.3173 41.9748 64.322 42.1949L64.315 42.4595H64.5656C64.5656 42.4595 64.5515 41.6142 64.5586 41.2864H64.3244V41.5322C64.0597 41.2348 63.7881 41.174 63.6405 41.1529C63.055 41.0709 62.4906 41.2114 62.13 41.4198C61.7646 41.6306 61.6545 41.9631 61.6545 42.3144C61.6545 42.6656 61.8208 42.9162 62.151 43.0895C62.2424 43.134 62.9122 43.3798 63.4133 43.792C63.7764 44.0894 63.671 44.4266 63.4906 44.4992C62.952 44.7193 61.9894 44.2697 61.9871 44.1034C61.9848 43.9535 61.9754 43.6351 61.9754 43.6351L61.7342 43.6257C61.7342 43.6257 61.7435 44.7286 61.7435 44.8059H61.9848L61.9801 44.5671C62.3571 44.8083 62.8255 44.9862 63.24 44.9862C63.8255 44.9862 63.9262 45.005 64.301 44.7404C64.7904 44.3938 64.8209 44.0425 64.8209 43.6585C64.8209 43.4501 64.7436 43.2651 64.5914 43.1105C64.4391 42.956 64.219 42.785 63.9567 42.7312V42.7265Z" fill="white"/>
<path d="M117.012 42.7874L116.414 42.579C116.04 42.4549 115.939 42.3752 115.939 42.1575C115.939 41.9842 115.955 41.8367 116.143 41.7125C116.332 41.5861 116.405 41.6001 116.613 41.6072C116.885 41.6165 116.958 41.6634 117.136 41.7617C117.34 41.8765 117.372 42.0357 117.377 42.2558L117.37 42.5204H117.621C117.621 42.5204 117.606 41.6751 117.614 41.3472H117.379V41.5931C117.115 41.2957 116.843 41.2348 116.695 41.2138C116.11 41.1318 115.546 41.2723 115.185 41.4807C114.82 41.6915 114.709 42.024 114.709 42.3752C114.709 42.7265 114.876 42.9771 115.206 43.1503C115.297 43.1948 115.967 43.4407 116.468 43.8529C116.831 44.1503 116.726 44.4875 116.546 44.56C116.007 44.7802 115.044 44.3306 115.042 44.1643C115.04 44.0144 115.03 43.696 115.03 43.696L114.789 43.6866C114.789 43.6866 114.798 44.7895 114.798 44.8668H115.04L115.035 44.628C115.412 44.8691 115.88 45.0471 116.295 45.0471C116.88 45.0471 116.981 45.0659 117.356 44.8012C117.845 44.4547 117.876 44.1034 117.876 43.7194C117.876 43.511 117.799 43.326 117.646 43.1714C117.494 43.0169 117.274 42.8459 117.012 42.7921V42.7874Z" fill="white"/>
<path d="M71.1746 41.174C70.5867 41.174 70.1113 41.3472 69.7647 41.6915C69.4181 42.0357 69.2424 42.5111 69.2424 43.1035C69.2424 43.6585 69.3923 44.1011 69.6851 44.4172C69.9801 44.7333 70.3923 44.8949 70.9146 44.8949C71.4837 44.8949 71.9497 44.7169 72.2987 44.368C72.6476 44.0191 72.8256 43.5508 72.8256 42.9794C72.8256 42.408 72.6804 41.9678 72.3947 41.6517C72.1066 41.3332 71.6968 41.174 71.1769 41.174H71.1746ZM71.5118 44.1854C71.3994 44.4594 71.2542 44.5905 71.0668 44.5905C70.8795 44.5905 70.7343 44.457 70.6195 44.1807C70.5048 43.902 70.4462 43.5297 70.4462 43.0754C70.4462 42.586 70.5024 42.202 70.6125 41.9374C70.7226 41.6751 70.8724 41.5463 71.0715 41.5463C71.2706 41.5463 71.4181 41.6727 71.5212 41.9303C71.6266 42.1926 71.6804 42.5743 71.6804 43.0707C71.6804 43.5367 71.6219 43.9114 71.5094 44.1877L71.5118 44.1854Z" fill="white"/>
<path d="M101.067 41.2583C100.48 41.2583 100.004 41.4315 99.6575 41.7758C99.3109 42.12 99.1353 42.5954 99.1353 43.1878C99.1353 43.7428 99.2851 44.1854 99.5779 44.5015C99.873 44.8176 100.285 44.9792 100.807 44.9792C101.377 44.9792 101.843 44.8012 102.192 44.4523C102.54 44.1034 102.718 43.6351 102.718 43.0637C102.718 42.4923 102.573 42.0521 102.288 41.736C101.999 41.4175 101.59 41.2583 101.07 41.2583H101.067ZM101.405 44.2697C101.292 44.5436 101.147 44.6748 100.96 44.6748C100.772 44.6748 100.627 44.5413 100.512 44.265C100.398 43.9863 100.339 43.614 100.339 43.1597C100.339 42.6703 100.395 42.2863 100.505 42.0216C100.615 41.7594 100.765 41.6306 100.964 41.6306C101.163 41.6306 101.311 41.757 101.414 42.0146C101.519 42.2769 101.573 42.6586 101.573 43.155C101.573 43.621 101.515 43.9957 101.402 44.272L101.405 44.2697Z" fill="white"/>
<path d="M87.1069 44.5273C87.0671 44.5132 87.0413 44.4875 87.0273 44.45C87.0038 44.3868 86.9757 44.1877 86.9757 43.5859V42.0661C86.9757 41.9256 86.9593 41.5603 86.9593 41.5603C86.9593 41.5603 87.128 41.5603 87.3106 41.558V41.3262C87.3106 41.3262 86.0436 41.3168 85.6642 41.3215H85.6104V41.558H85.6666C85.9406 41.558 85.9055 41.5276 85.9055 41.5908V41.9608L85.8938 43.4758C85.8938 43.7405 85.9687 44.0285 85.7977 44.2322C85.6923 44.3563 85.6174 44.3633 85.3434 44.3821C85.0694 44.4008 84.8609 44.3282 84.8024 44.2205C84.7157 44.0589 84.7298 43.8856 84.7298 43.6187L84.7368 42.4151C84.7368 42.1926 84.7485 41.8788 84.7532 41.5276L84.7579 41.3238C84.7579 41.3238 83.4511 41.3168 83.1982 41.3238H83.1443V41.5603H83.2005C83.4745 41.5603 83.5939 41.6072 83.6455 41.6446C83.7157 41.6985 83.7532 41.8062 83.7532 41.9678V43.7006C83.7532 44.0659 83.8609 44.361 84.074 44.5811C84.2872 44.8012 84.5752 44.9136 84.9289 44.9136C85.1748 44.9136 85.4371 44.8434 85.7064 44.7029C85.9172 44.5952 86.0905 44.464 86.224 44.3165V44.8504H87.6128V44.6303L87.4793 44.6069C87.2404 44.5624 87.149 44.539 87.1139 44.5249L87.1069 44.5273Z" fill="white"/>
<path d="M78.6688 44.6163V40.4106H78.8772V40.1319H78.6688H77.711H77.2168V40.4106H77.711V44.6163H77.2168V44.8481H77.711H78.6688H79.1091V44.6163H78.6688Z" fill="white"/>
<path d="M94.5733 43.6749C94.5733 43.6749 94.5335 43.8669 94.503 43.9254C94.3531 44.2299 93.9363 44.6748 93.229 44.3938C92.7817 44.2158 92.9362 42.4104 92.9433 42.0849C92.9503 41.7617 93.1822 41.6142 93.4749 41.6095C93.7911 41.6048 94.0089 41.7149 93.9691 41.8132C93.9527 41.8507 93.8449 42.0216 93.8449 42.0216C93.8449 42.0216 93.6669 42.7897 94.2314 42.7546C94.5241 42.7359 94.7864 42.593 94.7794 42.0591C94.7747 41.5439 94.0908 41.3262 94.0908 41.3262C94.0908 41.3262 92.2688 40.9164 91.8519 42.2675C91.3742 43.813 92.0697 44.7942 93.1189 44.9183C93.0908 45.0096 93.0534 45.1946 93.1798 45.3258C93.3531 45.5061 93.7068 45.6723 93.5147 45.8409C93.3227 46.0095 92.9175 46.0095 92.9175 46.0095V46.2297H93.6412C93.6412 46.2297 94.2033 46.2133 94.1564 45.7543C94.1096 45.2977 93.9035 45.211 93.7114 45.0822C93.6271 45.026 93.6178 44.9769 93.6318 44.9113C93.7185 44.8996 93.8051 44.8832 93.8941 44.8621C94.3344 44.7544 94.7255 44.3399 94.777 44.08C94.7981 43.9793 94.7958 43.6702 94.7958 43.6702H94.5663L94.5733 43.6749Z" fill="white"/>
<path d="M99.948 40.8649C99.948 40.818 99.7677 40.0406 100.531 40.1389C101.007 40.2022 101.091 40.5136 101.541 40.3473C101.604 40.3239 101.59 40.153 101.59 40.153H101.817C101.817 40.153 101.866 40.5183 101.793 40.6073C101.615 40.8274 101.445 40.8649 101.29 40.8649C100.812 40.8649 100.74 40.6728 100.573 40.6447C100.128 40.5745 100.199 40.8649 100.199 40.8649L99.948 40.8602V40.8649Z" fill="white"/>
<path d="M110.089 44.0636C109.894 44.2884 109.721 44.5156 109.033 44.5366C108.934 44.539 108.606 44.4851 108.494 44.2111C108.386 43.9536 108.365 43.6093 108.36 43.1995H109.379C109.576 43.2066 110.182 43.2089 110.253 43.1995C110.264 43.0309 110.3 42.1996 109.993 41.7945C109.777 41.5088 109.372 41.2606 108.852 41.2606C108.264 41.2606 108.023 41.4339 107.677 41.7781C107.33 42.1223 107.154 42.5977 107.154 43.1902C107.154 43.7451 107.304 44.1877 107.597 44.5038C107.892 44.82 108.3 44.8668 108.66 44.8879C109.353 44.93 110.192 44.6139 110.257 43.8974C110.271 43.7358 110.206 43.9278 110.086 44.0683L110.089 44.0636ZM108.904 41.6657C109.103 41.6657 109.22 41.7969 109.276 42.0708C109.321 42.2886 109.318 42.6844 109.293 42.9466H108.365C108.377 42.5368 108.426 42.2137 108.522 41.9795C108.632 41.7172 108.705 41.6681 108.904 41.6681V41.6657Z" fill="white"/>
</g>
<defs>
<clipPath id="clip0_26_52">
<rect width="130" height="48" fill="white"/>
</clipPath>
</defs>
</svg>
