<svg width="144" height="163" viewBox="0 0 144 163" fill="none" xmlns="http://www.w3.org/2000/svg">
<path d="M71.4007 1.24C71.6563 1.24 71.9036 1.28176 72.1299 1.36526C73.383 1.82452 74.4559 2.69712 75.5078 4.11247C76.2245 5.0811 76.8363 6.19585 77.3644 7.52353C78.1942 9.59438 78.7139 11.7446 78.9066 13.924C78.9737 14.7005 78.9695 15.4896 78.9569 16.166V16.2328C79.0198 17.2306 78.9947 18.3078 78.8857 19.6271C78.8605 19.9528 78.6175 21.2178 78.387 22.3451C82.624 24.1488 86.0815 27.5598 87.9339 31.76C89.2456 31.4886 90.8256 31.3299 90.8424 31.3299C91.5004 31.2631 92.1751 31.2297 92.854 31.2297C94.0568 31.2297 95.2931 31.3341 96.5462 31.5387C99.0524 31.8184 101.546 32.5532 103.935 33.7223C105.586 34.5322 106.852 35.5259 107.803 36.7617C108.017 37.0415 108.189 37.3087 108.327 37.5759C108.344 37.6009 108.386 37.6636 108.407 37.7387C108.922 38.8702 108.759 39.9682 107.895 41.1915C107.686 41.4879 107.438 41.7802 107.158 42.0683C105.959 43.2999 104.417 44.2727 102.451 45.041C100.222 45.9136 97.9879 46.4438 95.817 46.6233C94.8992 46.736 94.0568 46.807 93.0552 46.807C92.4182 46.807 91.7183 46.7778 90.8927 46.711C90.0377 46.6442 88.8685 46.4229 87.959 46.2309C86.1192 50.4394 82.6701 53.8629 78.4373 55.6791C78.454 55.7543 78.4666 55.8294 78.4834 55.9087C78.672 56.8899 78.8689 58.1048 78.8983 58.4096C79.0617 60.2174 79.0324 61.9877 78.8019 63.6702C78.7432 64.3508 78.6384 65.0689 78.4959 65.787C78.0475 68.075 77.4482 69.9078 76.61 71.557C75.6587 73.4358 74.6696 74.68 73.4081 75.5943C73.0268 75.8699 72.5825 76.1079 72.1299 76.279C71.7947 76.4043 71.4719 76.4586 71.1702 76.4586C70.2817 76.4586 69.5399 76.0118 69.0077 75.6277C67.6247 74.6257 66.5309 73.1978 65.5628 71.1311C64.4983 68.8557 63.8361 66.3548 63.6014 63.6953L63.5846 63.4657C63.5176 62.9104 63.4631 62.33 63.4338 61.7664C63.3751 60.7101 63.4338 59.6789 63.5092 58.5349C63.5427 58.0005 63.8487 56.4891 64.0247 55.6541C59.7835 53.8128 56.3427 50.36 54.5239 46.1223C53.0696 46.3853 51.3723 46.6734 50.9993 46.711C50.2994 46.782 49.5912 46.8154 48.8745 46.8154C47.5795 46.8154 46.2636 46.7026 44.9392 46.473C44.604 46.4271 44.2561 46.3728 43.9125 46.3102C41.532 45.8802 39.5288 45.2372 37.7853 44.3479C35.979 43.4294 34.7763 42.4858 33.8878 41.2959C33.7327 41.0913 33.586 40.8617 33.4519 40.6154L33.3178 40.4609L33.3388 40.4066C33.2675 40.2646 33.2047 40.1352 33.1544 40.0058C32.7772 39.0873 32.9197 38.1437 33.5818 37.1124C34.3278 35.9559 35.3839 34.9998 36.9011 34.1147C38.9798 32.8998 41.3811 32.0773 44.0382 31.6681C44.4657 31.6013 44.935 31.547 45.4757 31.4969C45.8864 31.4385 46.3055 31.3884 46.7078 31.3466C47.2149 31.2965 47.8016 31.2798 48.4135 31.2798C49.1553 31.2798 49.9348 31.3049 50.664 31.3299C51.0454 31.3425 51.41 31.355 51.7411 31.3633C52.156 31.3717 53.7318 31.6013 54.2682 31.7182C54.3646 31.7391 54.4694 31.7641 54.5825 31.7892C56.4014 27.6392 59.796 24.249 63.9534 22.4203C63.9534 22.4119 63.9534 22.4036 63.9492 22.3952C63.7146 21.222 63.5511 19.9695 63.505 19.5896C63.2619 17.4686 63.3793 15.2558 63.8738 12.8259C63.8948 12.6756 63.9241 12.5044 63.9534 12.3374C64.3767 10.0077 64.9551 8.13727 65.7723 6.44218C66.4093 5.12702 67.3397 3.46116 68.9239 2.27961C69.3262 1.979 69.783 1.76607 70.2231 1.55731C70.3614 1.49051 70.5038 1.42371 70.6421 1.35691C70.7972 1.28176 70.9649 1.24 71.1325 1.24H71.4091M67.2894 21.3348C68.5928 21.0425 69.9339 20.9005 71.2708 20.9005C72.5574 20.9005 73.844 21.0341 75.0971 21.3014C75.3485 19.9862 75.5832 18.6335 75.5916 18.5541C75.8221 16.7338 75.776 14.8341 75.4449 12.7507C74.9295 9.5067 73.5255 5.77834 73.1567 5.13955L73.119 5.09362C72.549 4.33375 71.9749 3.94965 71.4133 3.94965C70.4703 3.94965 70.0973 4.42561 69.6992 4.92662C69.6237 5.02264 69.5483 5.11867 69.4729 5.20635C67.8426 7.08932 67.5954 8.70508 67.2559 10.9388C67.1846 11.398 67.1134 11.8823 67.0254 12.3959C66.7152 14.1912 66.8158 18.4539 66.8284 18.646C66.8661 18.9257 67.0421 20.1824 67.2894 21.3389M71.2079 31.7683C71.2373 31.7558 71.3504 31.6556 71.4175 31.593C71.4678 31.547 71.5181 31.5011 71.5683 31.4594C71.5642 31.4594 71.56 31.4635 71.56 31.4635C71.5558 31.4635 71.56 31.451 71.5641 31.4343C71.5767 31.4051 71.5893 31.3759 71.6019 31.3508C72.6077 29.3259 73.4878 27.1423 74.2086 24.8669C74.2421 24.7625 74.2757 24.6581 74.305 24.5538C73.3118 24.3492 72.2892 24.2448 71.2708 24.2448C70.2482 24.2448 69.2214 24.3492 68.224 24.5579C68.6934 26.0484 69.2801 27.8187 69.6112 28.6871C69.9716 29.6223 70.4326 30.5492 70.8768 31.4427L70.9355 31.5637C70.9816 31.6556 71.1451 31.7683 71.2037 31.7725M75.9814 36.5655C75.9814 36.5655 75.9939 36.5613 76.0023 36.5572C76.0778 36.5321 76.1406 36.5112 76.1993 36.4737C78.8773 34.8913 81.7188 33.6095 84.6608 32.666C83.1772 29.5764 80.6794 27.1047 77.5697 25.6476C77.2596 26.5578 76.9243 27.5139 76.5513 28.4658C75.8095 30.3488 74.875 32.2276 73.7728 34.0521C73.6554 34.2483 73.6722 34.3736 73.8398 34.5406L74.2505 34.9497C74.7367 35.4341 75.2186 35.9142 75.7132 36.3902C75.7718 36.4486 75.864 36.4987 75.9562 36.5488L75.9814 36.5613M66.3967 36.5238C66.5057 36.5238 66.6147 36.482 66.6985 36.3985C66.996 36.0937 67.302 35.7889 67.6079 35.4883C67.9264 35.171 68.2449 34.8579 68.5593 34.5364C68.6137 34.478 68.664 34.3903 68.7185 34.2943C68.7185 34.2859 68.7269 34.2776 68.7311 34.2734L68.7101 34.2233C68.6557 34.1064 68.6096 33.9978 68.5509 33.8976C68.4042 33.6262 68.2533 33.359 68.1024 33.0918C67.8342 32.6117 67.5576 32.119 67.2978 31.6222C66.3171 29.71 65.4873 27.7227 64.8377 25.7103C61.7742 27.1799 59.3141 29.6474 57.8557 32.7035C60.6971 33.6179 63.4966 34.8871 66.1788 36.4737C66.2459 36.5154 66.3255 36.5363 66.4009 36.5363M93.9185 43.5254C96.5923 43.5254 99.3164 43.0077 102.644 41.8888C103.738 41.5214 105.008 40.4024 105.062 40.3523C105.494 39.9306 105.703 39.5173 105.687 39.1248C105.657 38.4109 104.907 37.793 104.362 37.3463L104.237 37.2419C101.709 35.1418 100.431 34.7786 96.6929 34.4404C96.0224 34.3778 95.4692 34.3527 94.9411 34.3527C94.0317 34.3527 93.1767 34.432 91.8817 34.5489L91.4962 34.5823C90.6789 34.6575 89.8449 34.7911 89.0151 34.9831C89.3211 36.3108 89.4761 37.6719 89.4761 39.0372C89.4761 40.4024 89.3337 41.6508 89.0529 42.9242C90.3395 43.1997 91.2782 43.3667 91.8482 43.421C92.5439 43.4878 93.2354 43.5254 93.9269 43.5254M48.3674 43.5463C49.1721 43.5463 49.9683 43.5004 50.752 43.4085C50.7981 43.4043 50.9658 43.3793 51.1837 43.3459C51.607 43.2791 52.2147 43.1872 52.5038 43.158C52.7302 43.1329 53.0654 43.0703 53.5139 42.9785C53.2247 41.6884 53.078 40.3648 53.078 39.0413C53.078 37.7178 53.2163 36.4737 53.4845 35.2211C52.2063 34.9706 50.8736 34.7201 50.5593 34.6867C49.8007 34.6074 49.0421 34.5698 48.2752 34.5698C45.6559 34.5698 42.9653 35.0249 40.1239 35.9476C39.2214 36.2398 38.3399 36.649 37.4794 37.1751L37.3201 37.2711C37.0771 37.4214 36.549 38.0351 36.4442 38.7783C36.3604 39.3795 36.5574 39.9432 37.031 40.4567C38.6948 42.2687 40.8363 42.6152 43.3132 43.0119C43.6861 43.0703 44.0633 43.1329 44.4447 43.1997C45.7649 43.4294 47.0724 43.5463 48.359 43.5463M85.7756 42.1935C86.0019 41.1581 86.115 40.1018 86.115 39.0372C86.115 37.9725 86.0061 36.9663 85.7923 35.9559H85.7839C84.8661 36.2482 83.9148 36.5488 83.0054 36.9037C81.9828 37.3003 80.9602 37.7512 79.9711 38.1854C79.6065 38.3441 79.2419 38.5069 78.8773 38.6656C78.5672 38.7992 78.4834 38.8743 78.4834 39.033C78.4834 39.1916 78.5546 39.2501 78.8563 39.3962L78.9108 39.4254C79.0366 39.4881 79.1665 39.5549 79.2922 39.6175C79.4557 39.701 79.6149 39.7845 79.7784 39.8638C81.5134 40.7114 83.5711 41.6424 85.7797 42.1894M56.7702 42.1727C59.3267 41.4963 61.6694 40.3732 63.6307 39.3545C63.7565 39.2877 63.8948 39.1081 63.9031 39.0413C63.8948 38.9829 63.7649 38.8034 63.6307 38.7282C63.1278 38.4443 62.583 38.2022 62.055 37.9683L61.9041 37.9015C60.2026 37.1458 58.4717 36.4945 56.7534 35.9726C56.5397 36.9747 56.4307 38.0059 56.4307 39.0372C56.4307 40.0684 56.5439 41.1456 56.766 42.1768M71.2079 41.7301C71.2079 41.7301 71.2247 41.7218 71.2331 41.7176C71.3127 41.6842 71.3881 41.6466 71.4175 41.6174C72.3269 40.7323 73.1232 39.9432 73.8482 39.2083C73.9362 39.1165 73.9362 38.9704 73.8482 38.8785C72.9807 37.9976 72.197 37.2126 71.451 36.482C71.363 36.3985 71.2876 36.3568 71.2121 36.3568C71.1367 36.3568 71.0696 36.3943 70.99 36.4737C70.1895 37.2544 69.3974 38.0393 68.6137 38.8284C68.4964 38.9453 68.5006 39.1332 68.6137 39.2501C69.3932 40.0308 70.177 40.8074 70.9649 41.5756C71.0151 41.6216 71.0948 41.6633 71.187 41.7134C71.1954 41.7134 71.2037 41.7218 71.2079 41.7259M64.8461 52.3641C65.7891 49.4749 67.0463 46.711 68.5802 44.1391C68.6305 44.0515 68.6682 43.9554 68.7143 43.8511C68.7227 43.8344 68.7269 43.8176 68.7353 43.8009C68.7353 43.7926 68.7269 43.7884 68.7227 43.7801C68.6724 43.6841 68.6221 43.5964 68.5676 43.5379C67.9641 42.9158 67.3481 42.3021 66.7697 41.7343C66.6105 41.5756 66.5267 41.5088 66.4345 41.5088C66.3548 41.5088 66.2668 41.5589 66.116 41.6508C63.5804 43.158 60.8061 44.4105 57.864 45.375C59.3267 48.4311 61.7867 50.8944 64.8461 52.3683M77.5865 52.4184C80.692 50.9613 83.1856 48.4896 84.6692 45.4084C81.8235 44.494 78.9905 43.2248 76.2496 41.6299C76.1783 41.5882 76.1029 41.5589 76.0149 41.5255C76.0065 41.5255 75.9939 41.5172 75.9856 41.513C75.9772 41.513 75.973 41.5213 75.9646 41.5255C75.8682 41.5756 75.7802 41.6257 75.7257 41.68C75.3444 42.0474 74.9714 42.4232 74.5984 42.7989C74.4014 42.9993 74.2044 43.1956 74.0033 43.3918C73.7546 43.6395 73.7155 43.9081 73.8859 44.1976C75.1767 46.3686 76.2747 48.6983 77.1506 51.1241C77.3057 51.5541 77.4482 51.9883 77.5907 52.4225M71.2792 53.8295C72.3018 53.8295 73.3243 53.7252 74.3176 53.5206C73.5087 50.9612 72.5993 48.6983 71.5348 46.6191C71.4594 46.473 71.275 46.3394 71.1995 46.3269C71.1451 46.3352 70.9774 46.4563 70.9313 46.5398C69.7872 48.786 68.8442 51.1241 68.1234 53.4955C69.1586 53.721 70.2147 53.8295 71.275 53.8295M71.1031 73.6988C71.342 73.6988 71.5935 73.6654 71.8575 73.5986C72.3311 73.4817 72.7963 72.9557 73.1525 72.5048C75.3108 69.7784 75.4617 67.0103 75.6587 63.5032L75.6838 63.0148C75.7341 62.1088 75.6796 61.1735 75.621 60.2675C75.6042 59.9962 75.5874 59.7206 75.5749 59.4492C75.5539 59.0568 75.3821 58.0881 75.1013 56.7605C73.844 57.0277 72.5574 57.1654 71.2666 57.1654C69.9758 57.1654 68.6347 57.0235 67.3523 56.7438C67.0631 58.1716 66.8452 59.2864 66.82 59.4993C66.5141 61.9752 66.7153 64.6472 67.4361 67.6616C67.5199 68.004 67.587 68.3088 67.6498 68.5885C68.0019 70.1375 68.1611 70.8431 69.2633 72.6258C69.7034 73.3356 70.3153 73.6905 71.0948 73.6905M71.1283 0C70.7679 0 70.4033 0.0876787 70.0806 0.246332C69.9506 0.308959 69.8165 0.371584 69.6866 0.434211C69.213 0.659666 68.6724 0.910173 68.1695 1.29011C66.3674 2.63449 65.3364 4.46736 64.6408 5.91194C63.7732 7.71141 63.1613 9.68623 62.7171 12.1287C62.6878 12.2998 62.6584 12.4668 62.6375 12.6213C62.122 15.1681 61.9963 17.502 62.2561 19.7482C62.298 20.1114 62.4028 20.8755 62.5453 21.7147C58.8279 23.5893 55.7392 26.6747 53.8659 30.3822C53.1367 30.2611 52.156 30.1317 51.7704 30.1233C51.4435 30.115 51.0831 30.1066 50.7059 30.0941C49.9432 30.0691 49.1721 30.044 48.4135 30.044C47.6843 30.044 47.0892 30.0691 46.5863 30.115C46.1714 30.1567 45.7523 30.2068 45.3332 30.2653C44.7842 30.3154 44.298 30.3738 43.8538 30.4406C41.0417 30.8707 38.4936 31.7474 36.2724 33.0459C34.5793 34.0354 33.3891 35.1168 32.5299 36.4486C31.654 37.8055 31.4654 39.1415 31.9683 40.4275L31.8552 40.6863L32.3623 41.2834L32.4168 41.346C32.5593 41.5965 32.7185 41.8345 32.882 42.0558C33.892 43.4085 35.2289 44.4648 37.2154 45.4752C39.072 46.4187 41.1884 47.0993 43.6903 47.5544C44.0466 47.617 44.4028 47.6754 44.7506 47.7214C46.1336 47.9594 47.5208 48.0804 48.8787 48.0804C49.6373 48.0804 50.3916 48.0429 51.1292 47.9677C51.4938 47.9301 52.705 47.7255 53.7905 47.5377C55.6638 51.3328 58.8028 54.485 62.5956 56.3805C62.3944 57.4034 62.2771 58.1007 62.2561 58.4639C62.1765 59.6496 62.1178 60.7226 62.1807 61.8499C62.2142 62.4344 62.2687 63.0231 62.3357 63.5951L62.3483 63.7955V63.8206C62.5956 66.622 63.2955 69.2649 64.4228 71.6739C65.4831 73.941 66.7069 75.5233 68.2659 76.6548C68.8987 77.1141 69.892 77.7278 71.166 77.7278C71.6438 77.7278 72.1132 77.6401 72.57 77.4689C73.1274 77.2602 73.6722 76.9679 74.1458 76.6256C75.579 75.5901 76.6813 74.2082 77.729 72.1415C78.6175 70.3838 79.2545 68.4507 79.7239 66.0459C79.8706 65.2902 79.9795 64.5428 80.0466 63.8289C80.2854 62.0628 80.319 60.2091 80.1472 58.3136C80.122 58.0213 79.9921 57.2197 79.8496 56.4264C83.634 54.556 86.7814 51.4372 88.6757 47.6754C89.5264 47.8341 90.2347 47.9385 90.7879 47.9802C91.6219 48.047 92.3595 48.0804 93.051 48.0804C94.2161 48.0804 95.1632 47.9844 95.9427 47.8884C98.231 47.7005 100.574 47.141 102.908 46.2267C105.045 45.3917 106.73 44.3228 108.059 42.9618C108.386 42.6278 108.675 42.2812 108.922 41.9347C110.024 40.3815 110.246 38.8242 109.584 37.3087C109.542 37.1876 109.484 37.0707 109.417 36.9621C109.249 36.649 109.052 36.34 108.805 36.0186C107.732 34.6241 106.319 33.5093 104.488 32.6159C101.978 31.3884 99.3625 30.616 96.718 30.3154C95.4147 30.1025 94.1155 29.9939 92.854 29.9939C92.1332 29.9939 91.4123 30.0273 90.7166 30.0983C90.5867 30.1108 89.6689 30.2068 88.6589 30.3697C86.7562 26.6121 83.6047 23.4975 79.8161 21.6354C79.9586 20.9005 80.1136 20.0655 80.143 19.744C80.2561 18.3663 80.2855 17.2306 80.2226 16.1743V16.1409C80.231 15.4437 80.2352 14.6421 80.1639 13.8279C79.9627 11.5274 79.4137 9.25202 78.5378 7.07262C77.9679 5.64891 77.3099 4.4423 76.5262 3.386C75.3234 1.76607 74.0703 0.755695 72.5742 0.204582C72.2054 0.070979 71.8114 0 71.4091 0H71.1283ZM68.0773 18.5333C68.0605 18.1032 67.9851 14.2079 68.2617 12.613C68.3539 12.0869 68.4251 11.6026 68.4964 11.135C68.8275 8.95559 69.0244 7.64043 70.42 6.02884C70.508 5.92864 70.596 5.81591 70.6841 5.70319C71.0529 5.23975 71.099 5.20635 71.4091 5.20635C71.4091 5.20635 71.6564 5.25228 72.0922 5.82844C72.4401 6.50481 73.7267 9.99101 74.196 12.9553C74.5104 14.9176 74.5565 16.6962 74.3385 18.3913C74.3218 18.504 74.217 19.1053 74.0787 19.8568C73.1483 19.7232 72.2054 19.6564 71.2624 19.6564C70.2608 19.6564 69.2633 19.7315 68.2827 19.8818C68.1779 19.2639 68.1024 18.742 68.0731 18.5333H68.0773ZM69.8626 25.5725C70.3278 25.5266 70.793 25.5015 71.2624 25.5015C71.7276 25.5015 72.1886 25.5266 72.6454 25.5725C72.2095 26.8334 71.7276 28.0608 71.2037 29.2424C71.0528 28.9084 70.9062 28.5744 70.7804 28.2404C70.5499 27.6392 70.1979 26.5954 69.8626 25.5725ZM75.1893 34.1189C76.1825 32.4155 77.0291 30.6703 77.7164 28.9251C77.9134 28.4241 78.0978 27.9272 78.2696 27.4429C80.1304 28.566 81.702 30.1192 82.8419 31.9646C80.5285 32.7996 78.2822 33.8392 76.1406 35.0625C75.8263 34.7535 75.512 34.4404 75.2061 34.1356L75.1893 34.1189ZM59.6577 31.998C60.7725 30.1818 62.3106 28.6412 64.1253 27.5181C64.7078 29.1046 65.3909 30.6703 66.1704 32.19C66.4345 32.7035 66.7152 33.2046 66.9877 33.6889C67.0673 33.8308 67.1427 33.9686 67.2182 34.1022C67.0505 34.2692 66.8829 34.4404 66.7111 34.6074C66.556 34.7619 66.4051 34.9122 66.2501 35.0666C64.1085 33.8433 61.8999 32.8163 59.6577 31.998ZM90.4694 35.9685C90.8466 35.91 91.2196 35.8599 91.5926 35.8265L91.9781 35.7931C93.2438 35.6762 94.0736 35.6011 94.9243 35.6011C95.423 35.6011 95.9427 35.6261 96.563 35.6846C100.041 35.9977 101.089 36.2649 103.415 38.2021L103.541 38.3065C103.776 38.4986 104.295 38.9286 104.404 39.1624C104.379 39.2084 104.325 39.3002 104.186 39.438C103.876 39.7094 102.921 40.465 102.229 40.6989C98.9937 41.7844 96.4289 42.2687 93.9059 42.2687C93.2563 42.2687 92.6151 42.2353 91.9488 42.1727C91.7015 42.1476 91.2615 42.0892 90.4903 41.9389C90.637 40.9786 90.7083 40.0058 90.7083 39.033C90.7083 38.0059 90.6245 36.9788 90.4652 35.9685H90.4694ZM38.0075 38.3065L38.1206 38.2397C38.8973 37.7665 39.6908 37.3977 40.5011 37.1333C43.2293 36.2482 45.769 35.8182 48.2626 35.8182C48.9793 35.8182 49.7043 35.8557 50.421 35.9267C50.5593 35.9392 51.125 36.0394 52.0177 36.2065C51.8794 37.1417 51.8123 38.0852 51.8123 39.033C51.8123 39.9807 51.8878 40.9828 52.0345 41.9472C51.7411 41.989 51.3597 42.0474 50.9825 42.1017C50.7939 42.1309 50.6431 42.1518 50.5886 42.1601C49.8636 42.2436 49.1092 42.2854 48.3548 42.2854C47.1437 42.2854 45.899 42.1768 44.6584 41.9556C44.2687 41.8888 43.8873 41.8261 43.5101 41.7635C41.1716 41.3877 39.3234 41.0871 37.953 39.5966C37.6386 39.2543 37.6722 39.033 37.6848 38.937C37.7225 38.6656 37.9194 38.39 38.0158 38.2982L38.0075 38.3065ZM81.0314 39.0831C81.8277 38.7324 82.6407 38.3858 83.4496 38.0685C83.8771 37.9015 84.3213 37.7471 84.7697 37.5968C84.82 38.0727 84.8452 38.5529 84.8452 39.033C84.8452 39.5549 84.8158 40.0768 84.753 40.5987C83.4245 40.1686 82.163 39.6217 81.0272 39.0831H81.0314ZM57.7593 40.5653C57.7006 40.0559 57.6713 39.5465 57.6713 39.0372C57.6713 38.5612 57.6964 38.0894 57.7467 37.6176C58.9579 38.0351 60.1732 38.5111 61.376 39.0455L61.4095 39.0622C60.278 39.605 59.0501 40.1394 57.7593 40.5694V40.5653ZM70.1602 39.0372C70.5038 38.6948 70.8475 38.3525 71.1995 38.0101C71.5306 38.3399 71.8743 38.6823 72.2305 39.0413C71.8994 39.3712 71.56 39.7094 71.1995 40.0642C70.8601 39.7302 70.5122 39.3879 70.1602 39.0372ZM59.6577 46.0764C61.9837 45.2288 64.1965 44.2018 66.2626 43.0119C66.5728 43.3208 66.8955 43.6423 67.214 43.9638C66.007 46.0513 64.9718 48.26 64.1336 50.5563C62.3148 49.4332 60.7767 47.8926 59.6619 46.0764H59.6577ZM75.1893 43.9638C75.2857 43.8678 75.3779 43.7717 75.4743 43.6757L75.5036 43.6465C75.7132 43.4377 75.9227 43.2248 76.1322 43.016C78.3241 44.2519 80.5704 45.2915 82.8377 46.1098C81.702 47.9468 80.1388 49.4958 78.2864 50.6147C77.444 48.2934 76.4005 46.0597 75.1851 43.9596L75.1893 43.9638ZM69.7537 52.4893C70.1769 51.2577 70.6589 50.0427 71.1995 48.8445C71.7192 49.9968 72.197 51.2076 72.6454 52.5019C72.1886 52.5478 71.7276 52.5728 71.2624 52.5728C70.7595 52.5728 70.2524 52.5436 69.7537 52.4893ZM71.0906 72.4421C70.8056 72.4421 70.5709 72.3628 70.3278 71.9745C69.3346 70.3671 69.2047 69.8118 68.8694 68.3171C68.8023 68.0249 68.7353 67.7159 68.6515 67.3736C67.9641 64.5053 67.7714 61.9793 68.0605 59.6538C68.0731 59.5578 68.1569 59.0902 68.333 58.1967C69.2969 58.3428 70.2775 58.4138 71.2582 58.4138C72.2389 58.4138 73.1651 58.3428 74.1038 58.2092C74.2421 58.9273 74.3008 59.349 74.3092 59.5118C74.3218 59.754 74.3343 59.9962 74.3511 60.2383V60.3427C74.4098 61.2111 74.4643 62.1088 74.4182 62.9438L74.393 63.4323C74.2044 66.8475 74.0661 69.3108 72.1551 71.724C71.7653 72.2167 71.5809 72.3503 71.518 72.3837C71.363 72.4212 71.2205 72.438 71.0906 72.438V72.4421Z" fill="#FAF5FF"/>
<path d="M50.0103 140.396C48.3255 140.158 47.1814 139.845 46.5821 139.465C45.9786 139.085 45.438 138.296 44.9602 137.098L27.7104 93.2299H26.6291L9.95763 130.213L8.29803 134.154C7.23773 136.689 6.36182 138.229 5.66194 138.78C4.96205 139.331 3.43655 139.845 1.08126 140.321L0 140.534V142.187H15.5902V140.534C15.1083 140.438 14.7478 140.392 14.509 140.392C12.9667 140.296 12.0573 140.2 11.7681 140.104C10.7581 139.816 10.251 139.198 10.251 138.242C10.251 137.528 10.4186 136.739 10.7581 135.879L15.3765 124.213L16.244 122.201L24.542 102.286L32.3371 122.201L33.1292 124.213L37.6764 136.526C38.0619 137.578 38.2547 138.317 38.2547 138.743C38.2547 139.169 38.0116 139.469 37.5339 139.636C37.0519 139.803 35.7527 140.054 33.6363 140.388C33.4938 140.388 33.1795 140.438 32.6976 140.53V142.183H51.0999V140.53C50.4251 140.434 50.0647 140.388 50.0186 140.388L50.0103 140.396Z" fill="#FAF5FF"/>
<path d="M68.8987 116.861L79.0701 106.979L86.2743 99.6805C88.353 97.5679 89.3923 96.14 89.3923 95.4052C89.3923 94.6703 88.7469 94.1777 87.4603 93.9314C87.3597 93.9314 86.4712 93.8813 84.7865 93.7852V92.0818H101.567V93.7852C98.3986 94.0316 95.2806 95.5304 92.2086 98.2818L74.8331 113.913L83.8184 124.238C84.116 124.581 85.0044 125.516 86.4922 127.04L92.5816 133.307C96.8396 137.682 100.674 139.966 104.09 140.166V141.87H93.0258C91.3411 141.87 89.6102 140.834 87.8291 138.764L70.156 118.418L68.8945 119.6V126.973C68.8945 127.416 68.97 129.875 69.1167 134.346C69.2172 136.655 69.498 138.045 69.9716 138.513C70.441 138.981 71.9413 139.461 74.4643 139.949L75.6545 140.171V141.874H55.4543V140.171L56.6445 139.949C59.7122 139.361 61.3718 138.647 61.6191 137.812C61.7658 137.223 61.8915 136.066 61.9921 134.346C62.1388 131.102 62.2142 128.643 62.2142 126.973V106.991C62.2142 106.745 62.1388 104.286 61.9921 99.6178C61.8915 97.2589 61.594 95.7976 61.0994 95.2298C60.6049 94.6662 59.1171 94.2361 56.6445 93.9397L55.4543 93.7936V92.0901H75.6545V93.7936L74.4643 93.9397C73.1274 94.0858 72.1635 94.257 71.5683 94.4532C70.332 94.7956 69.6112 95.3634 69.4142 96.1483C69.3136 96.5408 69.2172 97.6973 69.1167 99.6137C68.97 102.762 68.8945 105.217 68.8945 106.987V116.869L68.8987 116.861Z" fill="#FAF5FF"/>
<path d="M28.0542 128.335L23.9634 124.496C23.918 124.453 23.8463 124.455 23.8035 124.5L19.9499 128.576C19.907 128.621 19.9092 128.692 19.9547 128.735L24.0454 132.574C24.0909 132.617 24.1625 132.615 24.2054 132.569L28.059 128.494C28.1018 128.449 28.0997 128.377 28.0542 128.335Z" fill="#FAF5FF"/>
<path d="M139.436 139.482H109.014V142.041H139.436V139.482Z" fill="#FAF5FF"/>
<path d="M142.554 122.163C140.375 126.764 138.401 129.608 136.628 130.693C134.855 131.779 131.234 132.321 125.765 132.321H121.206C119.634 132.321 118.712 132.104 118.431 131.666C118.15 131.228 118.012 129.825 118.012 127.457V114.168L130.949 114.289C131.473 114.356 134.855 114.256 135.413 119.107V120.94H136.766V105.91H135.413V108.001C135.354 108.381 134.839 111.091 132.085 111.35C132.06 111.35 132.039 111.35 132.018 111.358C127.291 111.438 122.777 111.245 118.012 111.308V99.6178C118.012 97.5929 118.088 96.3571 118.238 95.902C118.645 94.662 119.705 94.0441 121.428 94.0441H122.341C122.593 94.0441 123.506 94.065 125.078 94.1067C128.573 94.1902 130.929 94.3948 132.144 94.7246C135.689 95.6765 137.663 98.0063 138.07 101.726H139.516C139.31 99.1586 139.21 97.2046 139.21 95.8561C139.21 94.5952 139.235 93.0546 139.285 92.0776H104.035V93.7852H105.523C107.954 93.9898 109.329 94.5994 109.886 95.092C110.443 95.5847 110.77 96.8164 110.875 98.787C111.026 102.52 111.101 104.574 111.101 104.941V126.238L111.022 127.779C110.917 129.708 110.594 130.889 110.049 131.319C109.505 131.749 107.966 132.129 105.431 132.459L104.035 132.643V134.067H143.086C143.086 131.424 143.388 127.457 144 122.172H142.558L142.554 122.163Z" fill="#FAF5FF"/>
<path d="M25.8161 156.75L24.7474 156.378C24.0768 156.157 23.8966 156.015 23.8966 155.627C23.8966 155.318 23.926 155.055 24.2612 154.834C24.6007 154.608 24.7306 154.633 25.1036 154.646C25.5898 154.662 25.7197 154.746 26.0382 154.921C26.4028 155.126 26.4615 155.41 26.4699 155.802L26.4573 156.274H26.9057C26.9057 156.274 26.8806 154.767 26.8931 154.182H26.474V154.621C26.0005 154.09 25.5143 153.982 25.2503 153.944C24.2026 153.798 23.1926 154.049 22.5472 154.42C21.8934 154.796 21.6964 155.389 21.6964 156.015C21.6964 156.641 21.994 157.088 22.5849 157.397C22.7483 157.476 23.9469 157.915 24.8438 158.65C25.4934 159.18 25.3048 159.781 24.9821 159.91C24.0182 160.303 22.2957 159.501 22.2915 159.205C22.2873 158.938 22.2706 158.37 22.2706 158.37L21.8389 158.353C21.8389 158.353 21.8556 160.32 21.8556 160.457H22.2873L22.2789 160.032C22.9537 160.462 23.7919 160.779 24.5336 160.779C25.5814 160.779 25.7616 160.812 26.4321 160.34C27.308 159.723 27.3625 159.096 27.3625 158.412C27.3625 158.04 27.2242 157.71 26.9518 157.435C26.6794 157.159 26.2854 156.854 25.8161 156.758V156.75Z" fill="#FAF5FF"/>
<path d="M120.757 156.863L119.688 156.491C119.018 156.27 118.838 156.128 118.838 155.74C118.838 155.431 118.867 155.168 119.202 154.946C119.542 154.721 119.672 154.746 120.045 154.758C120.531 154.775 120.661 154.859 120.979 155.034C121.344 155.238 121.403 155.522 121.411 155.915L121.398 156.387H121.847C121.847 156.387 121.822 154.879 121.834 154.295H121.415V154.733C120.942 154.203 120.455 154.095 120.191 154.057C119.144 153.911 118.134 154.161 117.488 154.533C116.834 154.909 116.637 155.502 116.637 156.128C116.637 156.754 116.935 157.201 117.526 157.51C117.689 157.589 118.888 158.027 119.785 158.762C120.434 159.293 120.246 159.894 119.923 160.023C118.959 160.416 117.237 159.614 117.233 159.318C117.228 159.05 117.212 158.483 117.212 158.483L116.78 158.466C116.78 158.466 116.797 160.432 116.797 160.57H117.228L117.22 160.144C117.895 160.574 118.733 160.892 119.475 160.892C120.522 160.892 120.703 160.925 121.373 160.453C122.249 159.835 122.304 159.209 122.304 158.524C122.304 158.153 122.165 157.823 121.893 157.547C121.62 157.272 121.227 156.967 120.757 156.871V156.863Z" fill="#FAF5FF"/>
<path d="M38.7325 153.986C37.6806 153.986 36.8298 154.295 36.2095 154.909C35.5893 155.522 35.275 156.37 35.275 157.426C35.275 158.416 35.5432 159.205 36.0671 159.768C36.5951 160.332 37.3327 160.62 38.2673 160.62C39.2857 160.62 40.1197 160.303 40.7441 159.681C41.3686 159.059 41.6871 158.224 41.6871 157.205C41.6871 156.186 41.4272 155.401 40.916 154.838C40.4005 154.27 39.6671 153.986 38.7367 153.986H38.7325ZM39.336 159.355C39.1348 159.844 38.875 160.077 38.5397 160.077C38.2044 160.077 37.9446 159.839 37.7392 159.347C37.5339 158.85 37.4291 158.186 37.4291 157.376C37.4291 156.504 37.5297 155.819 37.7267 155.347C37.9236 154.879 38.1919 154.65 38.5481 154.65C38.9043 154.65 39.1683 154.875 39.3527 155.335C39.5413 155.802 39.6377 156.483 39.6377 157.368C39.6377 158.199 39.5329 158.867 39.3318 159.359L39.336 159.355Z" fill="#FAF5FF"/>
<path d="M92.2296 154.132C91.1777 154.132 90.3269 154.441 89.7066 155.055C89.0864 155.669 88.7721 156.516 88.7721 157.572C88.7721 158.562 89.0403 159.351 89.5641 159.915C90.0922 160.478 90.8298 160.766 91.7644 160.766C92.7828 160.766 93.6168 160.449 94.2412 159.827C94.8657 159.205 95.1842 158.37 95.1842 157.351C95.1842 156.332 94.9243 155.547 94.413 154.984C93.8976 154.416 93.1642 154.132 92.2338 154.132H92.2296ZM92.8331 159.501C92.6319 159.99 92.3721 160.224 92.0368 160.224C91.7015 160.224 91.4417 159.986 91.2363 159.493C91.031 158.996 90.9262 158.332 90.9262 157.522C90.9262 156.65 91.0268 155.965 91.2238 155.493C91.4207 155.026 91.6889 154.796 92.0452 154.796C92.4014 154.796 92.6654 155.021 92.8498 155.481C93.0384 155.948 93.1348 156.629 93.1348 157.514C93.1348 158.345 93.03 159.013 92.8289 159.505L92.8331 159.501Z" fill="#FAF5FF"/>
<path d="M67.2433 159.965C67.1721 159.94 67.126 159.894 67.1008 159.827C67.0589 159.714 67.0086 159.359 67.0086 158.286V155.577C67.0086 155.326 66.9793 154.675 66.9793 154.675C66.9793 154.675 67.281 154.675 67.6079 154.671V154.257C67.6079 154.257 65.3406 154.241 64.6617 154.249H64.5653V154.671H64.6659C65.1562 154.671 65.0934 154.616 65.0934 154.729V155.389L65.0724 158.09C65.0724 158.562 65.2065 159.075 64.9006 159.439C64.712 159.66 64.5779 159.672 64.0875 159.706C63.5972 159.739 63.2242 159.61 63.1194 159.418C62.9644 159.13 62.9895 158.821 62.9895 158.345L63.0021 156.199C63.0021 155.802 63.023 155.243 63.0314 154.616L63.0398 154.253C63.0398 154.253 60.7013 154.241 60.2487 154.253H60.1523V154.675H60.2529C60.7432 154.675 60.9569 154.758 61.0491 154.825C61.1749 154.921 61.2419 155.113 61.2419 155.401V158.491C61.2419 159.142 61.4347 159.668 61.8161 160.061C62.1974 160.453 62.7129 160.654 63.3457 160.654C63.7858 160.654 64.2552 160.528 64.7371 160.278C65.1143 160.086 65.4244 159.852 65.6633 159.589V160.541H68.1486V160.148L67.9097 160.107C67.4822 160.027 67.3187 159.986 67.2559 159.961L67.2433 159.965Z" fill="#FAF5FF"/>
<path d="M52.1434 160.123V152.621H52.5164V152.128H49.5451V152.621H50.4293V160.123H49.5451V160.537H52.9313V160.123H52.1434Z" fill="#FAF5FF"/>
<path d="M80.604 158.445C80.604 158.445 80.5327 158.787 80.4782 158.892C80.21 159.434 79.464 160.228 78.1984 159.727C77.3979 159.409 77.6745 156.19 77.6871 155.61C77.6996 155.034 78.1146 154.771 78.6384 154.763C79.2042 154.754 79.5939 154.95 79.5227 155.126C79.4934 155.193 79.3006 155.497 79.3006 155.497C79.3006 155.497 78.9821 156.867 79.9921 156.804C80.5159 156.771 80.9853 156.516 80.9728 155.564C80.9644 154.646 79.7406 154.257 79.7406 154.257C79.7406 154.257 76.4801 153.527 75.7341 155.936C74.8792 158.691 76.1239 160.441 78.0014 160.662C77.9511 160.825 77.8841 161.155 78.1104 161.388C78.4205 161.71 79.0533 162.006 78.7097 162.307C78.366 162.608 77.641 162.608 77.641 162.608V163H78.936C78.936 163 79.9418 162.971 79.858 162.152C79.7742 161.338 79.4053 161.184 79.0617 160.954C78.9108 160.854 78.8941 160.766 78.9192 160.649C79.0743 160.629 79.2293 160.599 79.3886 160.562C80.1765 160.37 80.8764 159.631 80.9686 159.167C81.0063 158.988 81.0021 158.437 81.0021 158.437H80.5914L80.604 158.445Z" fill="#FAF5FF"/>
<path d="M90.2221 153.435C90.2221 153.351 89.8994 151.965 91.2657 152.141C92.1164 152.253 92.2673 152.809 93.072 152.512C93.1851 152.47 93.16 152.166 93.16 152.166H93.5665C93.5665 152.166 93.6545 152.817 93.5246 152.976C93.2061 153.368 92.9001 153.435 92.6235 153.435C91.7686 153.435 91.6387 153.092 91.3411 153.042C90.5448 152.917 90.6705 153.435 90.6705 153.435L90.2221 153.426V153.435Z" fill="#FAF5FF"/>
<path d="M108.369 159.138C108.021 159.539 107.711 159.944 106.479 159.981C106.303 159.986 105.716 159.89 105.515 159.401C105.322 158.942 105.284 158.328 105.276 157.597H107.099C107.451 157.61 108.536 157.614 108.662 157.597C108.683 157.297 108.746 155.815 108.197 155.092C107.811 154.583 107.086 154.14 106.156 154.14C105.104 154.14 104.672 154.449 104.052 155.063C103.432 155.677 103.118 156.524 103.118 157.581C103.118 158.57 103.386 159.359 103.91 159.923C104.438 160.487 105.167 160.57 105.812 160.608C107.053 160.683 108.553 160.119 108.671 158.842C108.696 158.554 108.578 158.896 108.365 159.146L108.369 159.138ZM106.248 154.863C106.604 154.863 106.814 155.097 106.915 155.585C106.994 155.973 106.99 156.679 106.944 157.147H105.284C105.305 156.416 105.393 155.84 105.565 155.422C105.762 154.955 105.892 154.867 106.248 154.867V154.863Z" fill="#FAF5FF"/>
</svg>
