<svg width="35" height="46" viewBox="0 0 35 46" fill="none" xmlns="http://www.w3.org/2000/svg">
<path fill-rule="evenodd" clip-rule="evenodd" d="M1.57153 2.28571C1.57153 1.02335 2.59488 0 3.85725 0H30.6705C31.9329 0 32.9562 1.02335 32.9562 2.28571C32.9562 3.54808 31.9329 4.57143 30.6705 4.57143H3.85725C2.59488 4.57143 1.57153 3.54808 1.57153 2.28571Z" fill="#E7E8E9"/>
<path fill-rule="evenodd" clip-rule="evenodd" d="M1.57153 14.612C1.57153 13.3497 2.59488 12.3263 3.85725 12.3263H30.6705C31.9329 12.3263 32.9562 13.3497 32.9562 14.612C32.9562 15.8744 31.9329 16.8977 30.6705 16.8977H3.85725C2.59488 16.8977 1.57153 15.8744 1.57153 14.612Z" fill="#E7E8E9"/>
<path fill-rule="evenodd" clip-rule="evenodd" d="M1.57153 26.9383C1.57153 25.6759 2.59488 24.6526 3.85725 24.6526H30.6705C31.9329 24.6526 32.9562 25.6759 32.9562 26.9383C32.9562 28.2006 31.9329 29.224 30.6705 29.224H3.85725C2.59488 29.224 1.57153 28.2006 1.57153 26.9383Z" fill="#E7E8E9"/>
<path d="M3.4741 42.1429V35.2829H5.2241L6.5541 39.4429C6.5941 39.5629 6.6341 39.6995 6.6741 39.8529C6.7141 40.0062 6.75076 40.1529 6.7841 40.2929C6.8241 40.4329 6.8541 40.5562 6.8741 40.6629H6.9541C6.96743 40.5629 6.99076 40.4429 7.0241 40.3029C7.05743 40.1629 7.09076 40.0162 7.1241 39.8629C7.1641 39.7095 7.2041 39.5662 7.2441 39.4329L8.5841 35.2829H10.3041V42.1429H9.1941V38.3829C9.1941 38.1295 9.19743 37.8662 9.2041 37.5929C9.21076 37.3195 9.21743 37.0762 9.2241 36.8629C9.23076 36.6495 9.2341 36.5129 9.2341 36.4529H9.1541C9.14076 36.5262 9.10743 36.6529 9.0541 36.8329C9.00743 37.0062 8.95743 37.1929 8.9041 37.3929C8.85076 37.5929 8.80076 37.7662 8.7541 37.9129L7.3641 42.1429H6.3741L4.9841 37.9229C4.9441 37.7962 4.90076 37.6462 4.8541 37.4729C4.80743 37.2995 4.76076 37.1229 4.7141 36.9429C4.66743 36.7629 4.62743 36.5995 4.5941 36.4529H4.5141C4.52076 36.6129 4.5241 36.8095 4.5241 37.0429C4.53076 37.2762 4.53743 37.5129 4.5441 37.7529C4.55076 37.9862 4.5541 38.1962 4.5541 38.3829V42.1429H3.4741ZM11.9311 42.1429V35.2829H17.2511V36.2429H13.0511V38.1529H16.8111V39.1129H13.0511V41.1829H17.3111V42.1429H11.9311ZM18.6694 42.1429V35.2829H19.7494L22.8794 39.5829C22.9194 39.6229 22.9627 39.6795 23.0094 39.7529C23.0627 39.8262 23.1127 39.8995 23.1594 39.9729C23.2061 40.0462 23.2394 40.1062 23.2594 40.1529H23.3094C23.3094 40.0529 23.3094 39.9562 23.3094 39.8629C23.3094 39.7695 23.3094 39.6762 23.3094 39.5829V35.2829H24.3894V42.1429H23.3494L20.1794 37.7929C20.1261 37.7129 20.0594 37.6129 19.9794 37.4929C19.8994 37.3662 19.8394 37.2695 19.7994 37.2029H19.7494C19.7494 37.2962 19.7494 37.3929 19.7494 37.4929C19.7494 37.5862 19.7494 37.6862 19.7494 37.7929V42.1429H18.6694ZM28.8232 42.2629C28.2365 42.2629 27.7298 42.1695 27.3032 41.9829C26.8765 41.7895 26.5498 41.4929 26.3232 41.0929C26.0965 40.6929 25.9832 40.1862 25.9832 39.5729V35.2829H27.1032V39.6029C27.1032 40.1695 27.2532 40.5962 27.5532 40.8829C27.8532 41.1695 28.2765 41.3129 28.8232 41.3129C29.3765 41.3129 29.8065 41.1695 30.1132 40.8829C30.4265 40.5962 30.5832 40.1695 30.5832 39.6029V35.2829H31.7032V39.5729C31.7032 40.1862 31.5865 40.6929 31.3532 41.0929C31.1265 41.4929 30.7965 41.7895 30.3632 41.9829C29.9365 42.1695 29.4232 42.2629 28.8232 42.2629Z" fill="#E7E8E9"/>
</svg>
