<svg width="72" height="72" viewBox="0 0 72 72" fill="none" xmlns="http://www.w3.org/2000/svg">
<circle cx="36" cy="36" r="36" fill="#F6D000"/>
<path fill-rule="evenodd" clip-rule="evenodd" d="M20.5715 18.2857C20.5715 17.0233 21.5949 16 22.8572 16H49.6705C50.9329 16 51.9562 17.0233 51.9562 18.2857C51.9562 19.5481 50.9329 20.5714 49.6705 20.5714H22.8572C21.5949 20.5714 20.5715 19.5481 20.5715 18.2857Z" fill="#111820"/>
<path fill-rule="evenodd" clip-rule="evenodd" d="M20.5715 30.612C20.5715 29.3497 21.5949 28.3263 22.8572 28.3263H49.6705C50.9329 28.3263 51.9562 29.3497 51.9562 30.612C51.9562 31.8744 50.9329 32.8978 49.6705 32.8978H22.8572C21.5949 32.8978 20.5715 31.8744 20.5715 30.612Z" fill="#111820"/>
<path fill-rule="evenodd" clip-rule="evenodd" d="M20.5715 42.9383C20.5715 41.6759 21.5949 40.6526 22.8572 40.6526H49.6705C50.9329 40.6526 51.9562 41.6759 51.9562 42.9383C51.9562 44.2006 50.9329 45.224 49.6705 45.224H22.8572C21.5949 45.224 20.5715 44.2006 20.5715 42.9383Z" fill="#111820"/>
<path d="M22.4741 58.1429V51.2829H24.2241L25.5541 55.4429C25.5941 55.5629 25.6341 55.6995 25.6741 55.8529C25.7141 56.0062 25.7508 56.1529 25.7841 56.2929C25.8241 56.4329 25.8541 56.5562 25.8741 56.6629H25.9541C25.9674 56.5629 25.9908 56.4429 26.0241 56.3029C26.0574 56.1629 26.0908 56.0162 26.1241 55.8629C26.1641 55.7095 26.2041 55.5662 26.2441 55.4329L27.5841 51.2829H29.3041V58.1429H28.1941V54.3829C28.1941 54.1295 28.1974 53.8662 28.2041 53.5929C28.2108 53.3195 28.2174 53.0762 28.2241 52.8629C28.2308 52.6495 28.2341 52.5129 28.2341 52.4529H28.1541C28.1408 52.5262 28.1074 52.6529 28.0541 52.8329C28.0074 53.0062 27.9574 53.1929 27.9041 53.3929C27.8508 53.5929 27.8008 53.7662 27.7541 53.9129L26.3641 58.1429H25.3741L23.9841 53.9229C23.9441 53.7962 23.9008 53.6462 23.8541 53.4729C23.8074 53.2995 23.7608 53.1229 23.7141 52.9429C23.6674 52.7629 23.6274 52.5995 23.5941 52.4529H23.5141C23.5208 52.6129 23.5241 52.8095 23.5241 53.0429C23.5308 53.2762 23.5374 53.5129 23.5441 53.7529C23.5508 53.9862 23.5541 54.1962 23.5541 54.3829V58.1429H22.4741ZM30.9311 58.1429V51.2829H36.2511V52.2429H32.0511V54.1529H35.8111V55.1129H32.0511V57.1829H36.3111V58.1429H30.9311ZM37.6694 58.1429V51.2829H38.7494L41.8794 55.5829C41.9194 55.6229 41.9627 55.6795 42.0094 55.7529C42.0627 55.8262 42.1127 55.8995 42.1594 55.9729C42.2061 56.0462 42.2394 56.1062 42.2594 56.1529H42.3094C42.3094 56.0529 42.3094 55.9562 42.3094 55.8629C42.3094 55.7695 42.3094 55.6762 42.3094 55.5829V51.2829H43.3894V58.1429H42.3494L39.1794 53.7929C39.1261 53.7129 39.0594 53.6129 38.9794 53.4929C38.8994 53.3662 38.8394 53.2695 38.7994 53.2029H38.7494C38.7494 53.2962 38.7494 53.3929 38.7494 53.4929C38.7494 53.5862 38.7494 53.6862 38.7494 53.7929V58.1429H37.6694ZM47.8232 58.2629C47.2365 58.2629 46.7298 58.1695 46.3032 57.9829C45.8765 57.7895 45.5498 57.4929 45.3232 57.0929C45.0965 56.6929 44.9832 56.1862 44.9832 55.5729V51.2829H46.1032V55.6029C46.1032 56.1695 46.2532 56.5962 46.5532 56.8829C46.8532 57.1695 47.2765 57.3129 47.8232 57.3129C48.3765 57.3129 48.8065 57.1695 49.1132 56.8829C49.4265 56.5962 49.5832 56.1695 49.5832 55.6029V51.2829H50.7032V55.5729C50.7032 56.1862 50.5865 56.6929 50.3532 57.0929C50.1265 57.4929 49.7965 57.7895 49.3632 57.9829C48.9365 58.1695 48.4232 58.2629 47.8232 58.2629Z" fill="#111820"/>
</svg>
