<svg width="200" height="198" viewBox="0 0 200 198" fill="none" xmlns="http://www.w3.org/2000/svg">
<rect width="200" height="197.647" rx="13" fill="#D9D9D9"/>
<path fill-rule="evenodd" clip-rule="evenodd" d="M59.6471 56.8396C56.4633 56.8396 53.8824 59.4134 53.8824 62.5882V131.571C53.8824 134.746 56.4633 137.319 59.6471 137.319H140.353C143.537 137.319 146.118 134.746 146.118 131.571V62.5882C146.118 59.4134 143.537 56.8396 140.353 56.8396H59.6471ZM42.353 62.5882C42.353 53.0637 50.0958 45.3425 59.6471 45.3425H140.353C149.904 45.3425 157.647 53.0637 157.647 62.5882V131.571C157.647 141.095 149.904 148.817 140.353 148.817H59.6471C50.0958 148.817 42.353 141.095 42.353 131.571V62.5882Z" fill="white"/>
<path fill-rule="evenodd" clip-rule="evenodd" d="M78.3823 96.5864L52.1939 122.701C49.9427 124.946 46.2927 124.946 44.0414 122.701C41.7902 120.456 41.7902 116.817 44.0414 114.572L71.2488 87.4405C73.1408 85.5539 75.7067 84.494 78.3823 84.494C81.0579 84.494 83.6239 85.5539 85.5158 87.4405L108.647 110.507L118.808 100.375C120.7 98.4881 123.266 97.4282 125.941 97.4282C128.617 97.4282 131.183 98.4881 133.075 100.375L155.959 123.195C158.21 125.44 158.21 129.079 155.959 131.324C153.707 133.569 150.057 133.569 147.806 131.324L125.941 109.521L115.78 119.653C113.889 121.539 111.323 122.599 108.647 122.599C105.971 122.599 103.405 121.539 101.514 119.653L78.3823 96.5864ZM126.96 108.504C126.96 108.505 126.961 108.504 126.96 108.504V108.504Z" fill="white"/>
<path d="M125.941 85.5824C130.717 85.5824 134.588 81.7219 134.588 76.9596C134.588 72.1973 130.717 68.3368 125.941 68.3368C121.166 68.3368 117.294 72.1973 117.294 76.9596C117.294 81.7219 121.166 85.5824 125.941 85.5824Z" fill="white"/>
</svg>
