<svg width="137" height="133" viewBox="0 0 137 133" fill="none" xmlns="http://www.w3.org/2000/svg">
<g filter="url(#filter0_d_77_157)">
<path d="M68.4997 9.78627C38.4559 9.78627 14.0994 33.3877 14.0994 62.5005C14.0994 91.6123 38.4559 115.213 68.4997 115.213C98.5436 115.213 122.9 91.6123 122.9 62.5005C122.9 33.3877 98.5436 9.78627 68.4997 9.78627Z" fill="#F6D000"/>
<path d="M68.4997 0C32.9342 0 4 28.0373 4 62.5005C4 96.963 32.9342 125 68.4997 125C104.065 125 133 96.963 133 62.5005C133 28.0373 104.065 0 68.4997 0ZM68.4997 122.998C34.0737 122.998 6.06628 95.8588 6.06628 62.5005C6.06628 29.1417 34.0737 2.00221 68.4997 2.00221C102.926 2.00221 130.934 29.1417 130.934 62.5005C130.934 95.8588 102.926 122.998 68.4997 122.998Z" fill="#F6D000"/>
<path d="M87.2882 47.1909L90.2987 43.838C91.14 42.9017 91.0381 41.4821 90.0718 40.6672L86.84 37.9417C85.8738 37.127 84.4087 37.225 83.5675 38.1615L80.7803 41.2647C83.2386 42.9216 85.4326 44.9201 87.2882 47.1909Z" fill="#45484F"/>
<path d="M64.2916 94.8294C61.532 94.8294 59.9789 92.6613 60.823 89.9873L64.4671 78.4434C65.3112 75.7694 68.2334 73.6007 70.993 73.6007H92.6685C93.4332 71.0167 93.8434 68.2873 93.8434 65.465C93.8434 49.1944 80.2324 36.0047 63.4409 36.0047C46.6499 36.0047 33.0384 49.1944 33.0384 65.465C33.0384 81.7353 46.6499 94.925 63.4409 94.925C64.267 94.925 65.085 94.8919 65.8947 94.8292L64.2916 94.8294Z" fill="#111820"/>
<path d="M63.4409 36.0047C66.326 36.0047 69.1177 36.3941 71.7619 37.1216V30.9517C71.7619 29.7108 70.7236 28.7044 69.4425 28.7044H57.4399C56.1587 28.7044 55.1204 29.7105 55.1204 30.9517V37.1216C57.7649 36.3941 60.5559 36.0047 63.4409 36.0047Z" fill="#45484F"/>
<path d="M39.5941 47.1909C41.4497 44.9201 43.644 42.9218 46.1021 41.2649L43.3149 38.1618C42.4739 37.2252 41.0088 37.127 40.0424 37.9419L36.8105 40.6674C35.8443 41.4824 35.7421 42.902 36.5836 43.8382L39.5941 47.1909Z" fill="#45484F"/>
<path d="M101.524 73.6007H70.993C68.2334 73.6007 65.3112 75.7694 64.4671 78.4434L60.823 89.9873C59.9789 92.6613 61.532 94.8294 64.2916 94.8294L94.8218 94.8294C97.5807 94.8294 100.503 92.6613 101.347 89.9873L104.992 78.4434C105.836 75.7694 104.282 73.6007 101.524 73.6007Z" fill="#111820"/>
<path d="M64.4671 78.4434C65.3112 75.7694 68.2334 73.6007 70.993 73.6007H86.4773C87.4321 71.0627 87.9535 68.323 87.9535 65.4649C87.9535 52.3468 76.9788 41.7125 63.4412 41.7125C49.903 41.7125 38.9289 52.3466 38.9289 65.4649C38.9289 77.8179 48.6608 87.9667 61.1005 89.1088L64.4671 78.4434Z" fill="#45484F"/>
<path d="M65.2753 61.9314L63.8269 47.6245C63.7784 47.1436 63.0544 47.1444 63.0069 47.6255L61.597 61.9358C60.2683 62.5892 59.3562 63.9223 59.3562 65.4649C59.3562 67.6515 61.1849 69.4235 63.4412 69.4235C65.6969 69.4235 67.5264 67.6517 67.5264 65.4649C67.5264 63.9184 66.6093 62.5826 65.2753 61.9314Z" fill="#111820"/>
<path d="M46.1258 97.5816L46.4134 97.6515L46.1258 97.7213C44.4423 98.1301 43.1285 99.4034 42.7068 101.035L42.6345 101.313L42.5624 101.035C42.1408 99.4034 40.8265 98.1301 39.1426 97.7213L38.8561 97.6515L39.1426 97.5816C40.8265 97.1728 42.1408 95.899 42.5624 94.2686L42.6345 93.9907L42.7068 94.2686C43.1287 95.899 44.4425 97.1728 46.1258 97.5816Z" fill="white"/>
<path d="M38.378 88.2863L38.8561 88.4025L38.378 88.5186C35.5787 89.1983 33.394 91.3159 32.6929 94.0284L32.5725 94.4912L32.4526 94.0284C31.7514 91.3159 29.5663 89.1983 26.7662 88.5186L26.2899 88.4025L26.7662 88.2863C29.5663 87.6066 31.7514 85.4885 32.4526 82.7775L32.5725 82.3152L32.6929 82.7775C33.3943 85.4885 35.5787 87.6066 38.378 88.2863Z" fill="white"/>
<path d="M108.997 62.3983L109.413 62.4993L108.997 62.6002C106.559 63.1919 104.657 65.0358 104.047 67.3975L103.942 67.8005L103.838 67.3975C103.227 65.0358 101.325 63.1922 98.8866 62.6002L98.4718 62.4993L98.8866 62.3983C101.324 61.8066 103.227 59.9623 103.838 57.602L103.942 57.1995L104.047 57.602C104.657 59.9623 106.559 61.8066 108.997 62.3983Z" fill="#E7E8E9"/>
<path d="M112.478 72.0718L112.765 72.1414L112.478 72.211C110.797 72.6191 109.486 73.8902 109.065 75.5184L108.993 75.7961L108.921 75.5184C108.5 73.8902 107.188 72.6189 105.507 72.211L105.221 72.1414L105.507 72.0718C107.188 71.6637 108.5 70.3924 108.921 68.7649L108.993 68.4875L109.065 68.7649C109.486 70.3924 110.797 71.664 112.478 72.0718Z" fill="#E7E8E9"/>
<path d="M90.3384 25.7804L90.8689 25.9091L90.3384 26.0377C87.2336 26.7917 84.8104 29.1404 84.0326 32.149L83.8991 32.6623L83.766 32.149C82.9882 29.1404 80.5645 26.7917 77.4587 26.0377L76.9303 25.9091L77.4587 25.7804C80.5645 25.0265 82.9882 22.6772 83.766 19.6701L83.8991 19.1574L84.0326 19.6701C84.8107 22.6772 87.2336 25.0265 90.3384 25.7804Z" fill="#E7E8E9"/>
<path d="M101.524 73.6007H70.993C68.2334 73.6007 65.3112 75.7694 64.4671 78.4434L60.823 89.9873C59.9789 92.6613 61.532 94.8294 64.2916 94.8294L94.8218 94.8294C97.5807 94.8294 100.503 92.6613 101.347 89.9873L104.992 78.4434C105.836 75.7694 104.282 73.6007 101.524 73.6007Z" fill="#947D00"/>
<path d="M76.9227 79.5502C76.8681 79.1 76.7206 78.6963 76.4841 78.3502C76.2461 78.0024 75.9279 77.7257 75.5361 77.5262C74.9523 77.2382 74.1836 77.0922 73.2518 77.0922C72.4821 77.0922 71.7672 77.2042 71.1273 77.4255C70.4891 77.6461 69.922 77.9407 69.4417 78.3007C68.9621 78.6603 68.5572 79.0676 68.238 79.5115C67.9177 79.9566 67.6939 80.3924 67.5722 80.8071C67.4586 81.1951 67.4915 81.5142 67.6701 81.7556C67.8512 82.0007 68.1287 82.125 68.4952 82.125C68.8845 82.125 69.2204 82.0032 69.4938 81.7627C69.7414 81.5453 69.9984 81.2341 70.2579 80.8377C70.5751 80.3537 70.6925 80.2095 70.7355 80.1659C71.3335 79.5468 71.9726 79.2461 72.6895 79.2461C73.0122 79.2461 73.291 79.3162 73.5179 79.4542C73.7382 79.5882 73.8844 79.7718 73.965 80.0145C74.0467 80.2625 74.0402 80.5522 73.9453 80.8757C73.8543 81.187 73.6792 81.5115 73.4253 81.8407C73.1663 82.1765 72.8301 82.5103 72.4259 82.8326C72.0166 83.1588 71.5214 83.4885 70.9571 83.8105C70.6239 83.9934 70.0682 84.3603 69.2586 84.9328C68.4646 85.4944 67.5484 86.1779 66.5339 86.9662C66.2764 87.1696 66.0095 87.4517 65.7409 87.8044C65.4642 88.1681 65.2968 88.4576 65.229 88.6892C65.1169 89.0721 65.1705 89.4135 65.3886 89.7032C65.6084 89.9956 65.9794 90.1439 66.4919 90.1439H72.9996C73.4367 90.1439 73.8037 90.0304 74.09 89.8064C74.3723 89.5858 74.5633 89.311 74.6571 88.9904C74.7992 88.5044 74.6278 88.2066 74.4585 88.0422C74.2261 87.8167 73.8586 87.7071 73.3352 87.7071H69.2345C69.3109 87.6375 69.3858 87.5721 69.4594 87.5115C69.8937 87.1314 70.6609 86.5872 71.7394 85.8939C72.8496 85.1801 73.62 84.6728 74.0953 84.3431C74.5797 84.0069 75.0992 83.5382 75.639 82.9502C76.1904 82.3498 76.5795 81.6725 76.7947 80.937C76.9333 80.4625 76.9766 79.9956 76.9227 79.5502Z" fill="white"/>
<path d="M86.2322 77.0066C85.9094 77.0066 85.6006 77.111 85.314 77.3174C85.0568 77.5024 84.7095 77.801 84.2818 78.2049L77.8176 84.2784L77.3666 84.699C77.2424 84.8157 77.1197 84.9365 76.9991 85.0618C76.8721 85.1934 76.7669 85.3213 76.6867 85.4429C76.6017 85.5713 76.5395 85.701 76.5023 85.8282C76.3589 86.3179 76.415 86.7184 76.669 87.0184C76.9186 87.3132 77.3618 87.4627 77.9866 87.4627H82.1421L81.7529 88.7922C81.6089 89.2833 81.6231 89.6554 81.7963 89.9296C81.92 90.1255 82.1743 90.3586 82.6822 90.3586C83.0684 90.3586 83.417 90.2341 83.7185 89.9887C84.0136 89.7485 84.2345 89.3841 84.3746 88.9056L84.7972 87.4627H85.1749C85.6588 87.4627 86.0566 87.3767 86.3571 87.2074C86.6736 87.0289 86.8911 86.7441 87.0034 86.3608C87.1901 85.7238 86.9498 85.4498 86.7156 85.3324C86.4434 85.1956 86.0713 85.1292 85.5778 85.1292H85.4807L87.3456 78.7615C87.5247 78.1498 87.4966 77.7044 87.2591 77.4C87.0555 77.1387 86.71 77.0066 86.2322 77.0066ZM79.7101 85.1289L84.02 81.0502L82.8253 85.1289H79.7101Z" fill="white"/>
<path d="M98.3744 82.0618C98.2302 81.5331 97.9315 81.1233 97.4863 80.8439C97.0518 80.5718 96.5009 80.4338 95.8493 80.4338C95.4258 80.4338 95.0088 80.4868 94.6091 80.5909C94.2092 80.6953 93.8214 80.8539 93.4565 81.0623C93.2539 81.1779 93.0411 81.3174 92.82 81.4794L93.6512 78.6414C93.8063 78.1115 93.7957 77.7113 93.6183 77.4174C93.4329 77.1108 93.1041 76.9551 92.6417 76.9551C92.2125 76.9551 91.8341 77.0921 91.5166 77.3622C91.2078 77.625 90.9753 78.0174 90.8256 78.5282L87.8546 88.6723C87.6778 89.276 87.7023 89.711 87.9292 90.0022C88.1136 90.2387 88.4191 90.3583 88.8375 90.3583C89.2718 90.3583 89.6568 90.2186 89.9826 89.9429C90.2992 89.6743 90.5337 89.2848 90.6799 88.7855L91.5857 85.6929C91.8399 84.825 92.0797 84.2184 92.2952 83.8941C92.5671 83.5103 92.9005 83.2037 93.286 82.9828C93.6651 82.7659 94.0547 82.6561 94.4442 82.6561C95.2442 82.6561 95.3383 82.9953 95.3692 83.1068C95.4704 83.4711 95.4165 84.0147 95.2091 84.7228L94.0524 88.6725C93.8756 89.2762 93.9001 89.7113 94.127 90.0024C94.3114 90.239 94.617 90.3586 95.0353 90.3586C95.4512 90.3586 95.8293 90.2208 96.1589 89.9495C96.4819 89.6838 96.7207 89.2922 96.8689 88.7855L98.1811 84.3047C98.3152 83.8471 98.4055 83.4341 98.4495 83.077C98.4955 82.7039 98.4692 82.3596 98.3744 82.0618Z" fill="white"/>
</g>
<defs>
<filter id="filter0_d_77_157" x="0" y="0" width="137" height="133" filterUnits="userSpaceOnUse" color-interpolation-filters="sRGB">
<feFlood flood-opacity="0" result="BackgroundImageFix"/>
<feColorMatrix in="SourceAlpha" type="matrix" values="0 0 0 0 0 0 0 0 0 0 0 0 0 0 0 0 0 0 127 0" result="hardAlpha"/>
<feOffset dy="4"/>
<feGaussianBlur stdDeviation="2"/>
<feComposite in2="hardAlpha" operator="out"/>
<feColorMatrix type="matrix" values="0 0 0 0 0 0 0 0 0 0 0 0 0 0 0 0 0 0 0.25 0"/>
<feBlend mode="normal" in2="BackgroundImageFix" result="effect1_dropShadow_77_157"/>
<feBlend mode="normal" in="SourceGraphic" in2="effect1_dropShadow_77_157" result="shape"/>
</filter>
</defs>
</svg>
