<svg width="126" height="126" viewBox="0 0 126 126" fill="none" xmlns="http://www.w3.org/2000/svg">
<path d="M62.9997 9.86456C33.6546 9.86456 9.86456 33.6549 9.86456 63.0005C9.86456 92.3452 33.6543 116.135 62.9997 116.135C92.3451 116.135 116.135 92.3452 116.135 63.0005C116.135 33.6549 92.3449 9.86456 62.9997 9.86456Z" fill="#F6D000"/>
<path d="M62.9998 0C28.2613 0 0 28.2616 0 63.0005C0 97.7387 28.2613 126 62.9998 126C97.7382 126 126 97.7387 126 63.0005C126 28.2616 97.7382 0 62.9998 0ZM62.9998 123.982C29.3743 123.982 2.01822 96.6257 2.01822 63.0005C2.01822 29.3748 29.3743 2.01822 62.9998 2.01822C96.625 2.01822 123.982 29.3748 123.982 63.0005C123.982 96.6257 96.625 123.982 62.9998 123.982Z" fill="#F6D000"/>
<path d="M86.877 65.2717C86.8328 65.1326 86.7816 64.9957 86.7238 64.8616L86.7206 64.8539C86.6648 64.725 86.6023 64.5987 86.5339 64.4754C86.5292 64.467 86.5247 64.4586 86.52 64.4502C86.4553 64.3349 86.3841 64.2229 86.3088 64.1137C86.2986 64.0989 86.289 64.0838 86.2786 64.0693C86.2075 63.9687 86.1306 63.8721 86.0506 63.7777C86.0333 63.7572 86.017 63.7362 85.9992 63.7162C85.9234 63.63 85.8423 63.548 85.7591 63.4677C85.7341 63.4437 85.7104 63.4183 85.6847 63.3948C85.6047 63.3209 85.5192 63.252 85.4325 63.1838C85.4006 63.1586 85.3707 63.1319 85.3378 63.1075C85.2496 63.042 85.156 62.9822 85.0619 62.9232C85.0275 62.9017 84.9957 62.8777 84.9606 62.8572C84.8301 62.7804 84.695 62.7095 84.5542 62.6455C84.5542 62.6455 78.7512 59.1525 72.9567 56.637C68.5509 54.7243 62.8088 52.753 60.0593 52.5309C58.8736 52.435 56.8697 52.2991 55.6404 53.358C54.9093 53.9875 54.0861 57.0199 53.0591 57.9746C50.9887 59.8992 48.5448 60.3085 47.2129 60.1035C46.1716 59.9434 46.6763 56.9357 46.6763 56.9357C46.6763 56.9357 48.2901 49.9995 49.708 46.9036C48.1229 47.2446 46.5834 47.5042 45.7509 47.44C44.8434 47.3701 42.8123 46.5093 40.7988 45.5547L32.9809 65.7611C34.1161 66.3264 35.1755 66.8959 35.865 67.3613C38.1036 68.8726 38.867 71.34 40.3375 73.9956C40.5065 74.3007 40.8475 74.6918 41.3285 75.1476L43.4354 71.3842C44.3031 69.8351 46.4105 69.3655 48.1426 70.3349C49.4723 71.0791 50.1912 72.4527 50.0657 73.7523C51.1298 72.2079 53.1839 71.6824 54.8157 72.5972C56.4927 73.5361 57.1032 75.6482 56.241 77.3919C57.286 76.2895 59.0621 76.0264 60.5482 76.8565C62.2821 77.8285 62.9575 79.9176 62.058 81.5237L62.0355 81.5638C62.9602 80.9123 64.3601 80.8673 65.5852 81.5536C67.1899 82.4532 67.8861 84.2602 67.1407 85.5893L65.3705 88.7532L68.2759 90.3926C70.1847 91.3784 72.5281 90.6338 73.5161 88.7255C74.2021 87.399 74.0482 85.8613 73.2497 84.7152C75.1985 85.4806 77.4507 84.6651 78.4338 82.7645C79.2604 81.1682 78.9425 79.2849 77.7828 78.0409C79.8665 79.0312 82.3482 78.2178 83.3549 76.1939C84.338 74.2142 83.5464 71.8106 81.5971 70.7087C83.6148 71.2839 85.8038 70.3162 86.6976 68.3478C87.1547 67.3408 87.1866 66.2503 86.877 65.2717Z" fill="#4C4E52"/>
<path d="M65.5852 81.5536C64.3601 80.8673 62.9602 80.9123 62.0355 81.5638L62.058 81.5237C62.9575 79.9176 62.2821 77.8285 60.5482 76.8565C59.0621 76.0264 57.286 76.2895 56.241 77.3919C57.1032 75.6482 56.4927 73.5361 54.8157 72.5972C53.1839 71.6824 51.1298 72.2079 50.0657 73.7523C50.1912 72.4527 49.4723 71.0791 48.1426 70.3349C46.4105 69.3655 44.3031 69.8351 43.4354 71.3842L40.6002 76.4494C39.7313 78.0007 40.4332 80.0426 42.1668 81.0128C43.5834 81.8066 45.2496 81.6356 46.2857 80.7018C45.8509 82.2864 46.5007 84.0049 47.968 84.8257C49.5395 85.7064 51.5031 85.2486 52.5956 83.83C52.1131 85.3319 52.817 87.0692 54.3505 87.927C55.8271 88.7529 57.5904 88.4982 58.6374 87.4136C58.4208 88.6163 59.1249 89.9815 60.4503 90.7249C62.0555 91.6235 63.9613 91.2712 64.7057 89.942L67.1407 85.5893C67.8861 84.2602 67.1899 82.4532 65.5852 81.5536Z" fill="#808389"/>
<path d="M84.9875 42.544L79.4828 44.3871L78.2932 44.5642C78.2855 44.563 66.4578 42.5334 63.4534 42.5334C60.4476 42.5334 52.0543 44.2737 50.5339 45.5816C49.0135 46.8898 46.6763 56.9357 46.6763 56.9357C46.6763 56.9357 46.1716 59.9434 47.2129 60.1035C48.5448 60.3085 50.9887 59.8992 53.0591 57.9746C54.0861 57.0199 54.9093 53.9875 55.6404 53.358C56.8697 52.2991 58.8736 52.435 60.0593 52.5309C62.8088 52.753 68.5509 54.7243 72.9567 56.637C78.7512 59.1525 84.5542 62.6455 84.5542 62.6455C85.7124 63.171 86.521 64.1473 86.877 65.2717C86.877 65.2717 87.3696 63.8785 88.1553 63.298C88.4839 63.0551 90.3758 62.4698 92.465 61.8712L84.9875 42.544Z" fill="#808389"/>
<path d="M65.5852 81.5536C64.3601 80.8673 62.9602 80.9123 62.0355 81.5638L62.058 81.5237C62.9575 79.9176 62.2821 77.8285 60.5482 76.8565C59.0621 76.0264 57.286 76.2895 56.241 77.3919C57.1032 75.6482 56.4927 73.5361 54.8157 72.5972C53.1839 71.6824 51.1298 72.2079 50.0657 73.7523C50.1912 72.4527 49.4723 71.0791 48.1426 70.3349C46.4105 69.3655 44.3031 69.8351 43.4354 71.3842L40.6002 76.4494C39.7313 78.0007 40.4332 80.0426 42.1668 81.0128C43.5834 81.8066 45.2496 81.6356 46.2857 80.7018C45.8509 82.2864 46.5007 84.0049 47.968 84.8257C49.5395 85.7064 51.5031 85.2486 52.5956 83.83C52.1131 85.3319 52.817 87.0692 54.3505 87.927C55.8271 88.7529 57.5904 88.4982 58.6374 87.4136C58.4208 88.6163 59.1249 89.9815 60.4503 90.7249C62.0555 91.6235 63.9613 91.2712 64.7057 89.942L67.1407 85.5893C67.8861 84.2602 67.1899 82.4532 65.5852 81.5536Z" fill="#808389"/>
<path d="M84.3797 40.9732L93.8473 65.4434C94.3416 66.7215 95.7798 67.3549 97.0551 66.8615L104.344 64.0416C105.622 63.547 106.256 62.1118 105.762 60.8338L96.2941 36.3636C95.8008 35.0883 94.3644 34.4509 93.0863 34.9455L85.7979 37.7654C84.5225 38.2585 83.8864 39.6979 84.3797 40.9732Z" fill="#111820"/>
<path d="M90.1983 43.217C91.176 42.8388 91.6619 41.7396 91.2837 40.7619C90.9054 39.7843 89.8063 39.2983 88.8286 39.6766C87.8509 40.0548 87.365 41.154 87.7432 42.1316C88.1215 43.1093 89.2206 43.5952 90.1983 43.217Z" fill="#F6D000"/>
<path d="M41.6203 43.4322L32.1527 67.9024C31.6584 69.1804 30.2202 69.8139 28.9449 69.3205L21.6564 66.5006C20.3782 66.006 19.744 64.5708 20.2383 63.2928L29.7059 38.8226C30.1992 37.5473 31.6356 36.9099 32.9137 37.4045L40.2022 40.2244C41.4775 40.7178 42.1136 42.1569 41.6203 43.4322Z" fill="#111820"/>
<path d="M38.2502 44.5888C38.6284 43.6112 38.1425 42.512 37.1648 42.1338C36.1872 41.7555 35.088 42.2415 34.7098 43.2191C34.3315 44.1968 34.8175 45.296 35.7951 45.6742C36.7728 46.0524 37.872 45.5665 38.2502 44.5888Z" fill="#F6D000"/>
<path d="M83.6465 33.3028L84.2127 33.4446L83.6465 33.5864C80.3317 34.417 77.7447 37.0047 76.9144 40.3195L76.7718 40.885L76.6297 40.3195C75.7994 37.0047 73.2119 34.4168 69.8962 33.5864L69.3321 33.4446L69.8962 33.3028C73.2119 32.4722 75.7994 29.8837 76.6297 26.5707L76.7718 26.0057L76.9144 26.5707C77.7447 29.8837 80.3317 32.4722 83.6465 33.3028Z" fill="#E7E8E9"/>
<path d="M33.8248 80.6588L34.3688 80.7952L33.8248 80.9315C30.6397 81.7295 28.1538 84.2162 27.3561 87.4015L27.2192 87.9448L27.0828 87.4015C26.2851 84.2164 23.7987 81.7298 20.6126 80.9315L20.0706 80.7952L20.6126 80.6588C23.7987 79.8608 26.2851 77.3734 27.0828 74.19L27.2192 73.6472L27.3561 74.19C28.1541 77.3734 30.6397 79.8608 33.8248 80.6588Z" fill="#E7E8E9"/>
<path d="M39.2003 30.6402L39.5638 30.7314L39.2003 30.8226C37.0727 31.3557 35.4119 33.0169 34.879 35.1446L34.7876 35.5075L34.6964 35.1446C34.1635 33.0167 32.5026 31.3557 30.3742 30.8226L30.012 30.7314L30.3742 30.6402C32.5026 30.1071 34.1635 28.4456 34.6964 26.3189L34.7876 25.9562L34.879 26.3189C35.4122 28.4456 37.0727 30.1071 39.2003 30.6402Z" fill="#E7E8E9"/>
<path d="M82.0329 93.3633L82.4364 93.4643L82.0329 93.5654C79.6705 94.1573 77.827 96.0014 77.2353 98.3637L77.1337 98.7667L77.0325 98.3637C76.4408 96.0014 74.5967 94.1573 72.2338 93.5654L71.8319 93.4643L72.2338 93.3633C74.5967 92.7713 76.4408 90.9268 77.0325 88.5656L77.1337 88.1629L77.2353 88.5656C77.8272 90.9268 79.6708 92.7716 82.0329 93.3633Z" fill="#E7E8E9"/>
<path d="M88.6632 84.8272L88.9096 84.8889L88.6632 84.9507C87.2214 85.3119 86.096 86.4377 85.7348 87.8796L85.6728 88.1256L85.6111 87.8796C85.2499 86.4375 84.1243 85.3119 82.682 84.9507L82.4366 84.8889L82.682 84.8272C84.1243 84.466 85.2499 83.3399 85.6111 81.8988L85.6728 81.6529L85.7348 81.8988C86.096 83.3399 87.2214 84.466 88.6632 84.8272Z" fill="#E7E8E9"/>
</svg>
