<svg width="128" height="127" viewBox="0 0 128 127" fill="none" xmlns="http://www.w3.org/2000/svg">
<path d="M64.0524 9.90989C34.5724 9.90989 10.6731 33.8095 10.6731 63.29C10.6731 92.7694 34.5722 116.669 64.0524 116.669C93.5326 116.669 117.432 92.7694 117.432 63.29C117.432 33.8095 93.5324 9.90989 64.0524 9.90989Z" fill="#F6D000"/>
<path d="M64.0524 0C29.1543 0 0.763184 28.3914 0.763184 63.29C0.763184 98.1878 29.1543 126.579 64.0524 126.579C98.9505 126.579 127.342 98.1878 127.342 63.29C127.342 28.3914 98.9505 0 64.0524 0ZM64.0524 124.552C30.2725 124.552 2.79068 97.0697 2.79068 63.29C2.79068 29.5098 30.2725 2.0275 64.0524 2.0275C97.8321 2.0275 125.315 29.5098 125.315 63.29C125.315 97.0697 97.8321 124.552 64.0524 124.552Z" fill="#F6D000"/>
<path d="M97.2027 43.0013L97.7716 43.1438L97.2027 43.2863C93.8727 44.1207 91.2739 46.7203 90.4397 50.0503L90.2965 50.6184L90.1537 50.0503C89.3196 46.7203 86.7202 44.1204 83.3892 43.2863L82.8226 43.1438L83.3892 43.0013C86.7202 42.1669 89.3196 39.5666 90.1537 36.2383L90.2965 35.6707L90.4397 36.2383C91.2739 39.5666 93.8727 42.1669 97.2027 43.0013Z" fill="#E7E8E9"/>
<path d="M37.84 86.9912L38.3865 87.1283L37.84 87.2652C34.6402 88.0669 32.1429 90.565 31.3415 93.7649L31.204 94.3107L31.067 93.7649C30.2656 90.5652 27.7678 88.0672 24.567 87.2652L24.0225 87.1283L24.567 86.9912C27.7678 86.1896 30.2656 83.6908 31.067 80.4928L31.204 79.9475L31.3415 80.4928C32.1432 83.6908 34.6402 86.1896 37.84 86.9912Z" fill="#E7E8E9"/>
<path d="M49.7393 28.0138L50.1044 28.1053L49.7393 28.1969C47.6019 28.7325 45.9335 30.4014 45.3981 32.5388L45.3063 32.9034L45.2147 32.5388C44.6794 30.4011 43.0108 28.7325 40.8726 28.1969L40.5087 28.1053L40.8726 28.0138C43.0108 27.4782 44.6794 25.8091 45.2147 23.6726L45.3063 23.3083L45.3981 23.6726C45.9337 25.8091 47.6019 27.4782 49.7393 28.0138Z" fill="#E7E8E9"/>
<path d="M80.6618 99.2631L81.0671 99.3646L80.6618 99.4661C78.2886 100.061 76.4365 101.913 75.8421 104.287L75.7401 104.691L75.6384 104.287C75.0439 101.913 73.1914 100.061 70.8177 99.4661L70.4139 99.3646L70.8177 99.2631C73.1914 98.6684 75.0439 96.8154 75.6384 94.4434L75.7401 94.0389L75.8421 94.4434C76.4368 96.8154 78.2888 98.6687 80.6618 99.2631Z" fill="#E7E8E9"/>
<path d="M93.1472 88.9936L93.3946 89.0556L93.1472 89.1177C91.6987 89.4806 90.5682 90.6116 90.2053 92.06L90.1431 92.3072L90.081 92.06C89.7181 90.6113 88.5874 89.4806 87.1384 89.1177L86.892 89.0556L87.1384 88.9936C88.5874 88.6307 89.7181 87.4995 90.081 86.0518L90.1431 85.8048L90.2053 86.0518C90.5682 87.4995 91.6987 88.6307 93.1472 88.9936Z" fill="#E7E8E9"/>
<path d="M72.9993 42.3572V80.1519H54.8457C54.8457 78.5481 54.2082 77.01 53.0734 75.8759C51.9385 74.7419 50.3994 74.1048 48.7945 74.1048C47.1896 74.1048 45.6505 74.7419 44.5157 75.8759C43.3808 77.01 42.7433 78.5481 42.7433 80.1519H35.1793C34.7781 80.1519 34.3933 79.9926 34.1096 79.7091C33.8259 79.4256 33.6665 79.0411 33.6665 78.6401V42.3572C33.6665 41.9563 33.8259 41.5718 34.1096 41.2883C34.3933 41.0047 34.7781 40.8455 35.1793 40.8455H71.4865C71.8878 40.8455 72.2725 41.0047 72.5562 41.2883C72.84 41.5718 72.9993 41.9563 72.9993 42.3572Z" fill="#3B3D40"/>
<path d="M97.2042 71.0812V80.1519H91.153C91.153 78.5481 90.5154 77.01 89.3806 75.8759C88.2458 74.7419 86.7066 74.1048 85.1017 74.1048C83.4969 74.1048 81.9577 74.7419 80.8229 75.8759C79.6881 77.01 79.0505 78.5481 79.0505 80.1519L72.9993 80.1519V48.4044H82.9838C83.6056 48.4047 84.2123 48.5964 84.7211 48.9534C85.23 49.3105 85.6165 49.8156 85.8279 50.3999L91.153 65.034C92.7578 65.034 94.297 65.6712 95.4318 66.8052C96.5666 67.9393 97.2042 69.4774 97.2042 71.0812Z" fill="#111820"/>
<path d="M97.2042 71.0812L97.2042 77.1283H90.336C89.8041 76.212 89.0406 75.4513 88.122 74.9225C87.2034 74.3938 86.1619 74.1155 85.1017 74.1155C84.0416 74.1155 83.0001 74.3938 82.0815 74.9225C81.1629 75.4513 80.3994 76.212 79.8675 77.1283C78.8484 77.1283 77.871 76.7238 77.1504 76.0036C76.4298 75.2835 76.0249 74.3068 76.0249 73.2884V48.4044H82.9838C83.6056 48.4047 84.2123 48.5964 84.7211 48.9534C85.23 49.3105 85.6165 49.8156 85.8279 50.3999L91.153 65.034C92.7578 65.034 94.297 65.6712 95.4318 66.8052C96.5666 67.9393 97.2042 69.4774 97.2042 71.0812Z" fill="#0F161D"/>
<path d="M79.8826 77.1283C79.7546 77.3487 79.6384 77.5758 79.5346 77.8086C79.621 77.5707 79.7326 77.3426 79.8675 77.1283H79.8826Z" fill="#B5B7BA"/>
<path d="M90.6688 77.8086C90.5651 77.5758 90.4489 77.3487 90.3209 77.1283C90.461 77.3419 90.5777 77.57 90.6688 77.8086Z" fill="#B5B7BA"/>
<path d="M91.153 65.034H79.0505V48.4044H82.9838C83.6056 48.4047 84.2123 48.5964 84.7211 48.9534C85.23 49.3105 85.6165 49.8156 85.8279 50.3999L91.153 65.034Z" fill="#545657"/>
<path d="M91.153 65.034C89.9782 65.0788 88.8066 64.8863 87.708 64.4682C86.6094 64.0501 85.6065 63.4149 84.7592 62.6006C83.9118 61.7863 83.2375 60.8096 82.7765 59.7289C82.3155 58.6483 82.0773 57.4858 82.0761 56.311V48.4044H82.9838C83.6056 48.4047 84.2123 48.5964 84.7211 48.9534C85.23 49.3105 85.6165 49.8156 85.8279 50.3999L91.153 65.034Z" fill="#B5B7BA"/>
<path d="M72.9993 42.3572V77.1283H54.0288C53.4969 76.212 52.7334 75.4513 51.8148 74.9225C50.8961 74.3938 49.8546 74.1155 48.7945 74.1155C47.7344 74.1155 46.6929 74.3938 45.7743 74.9225C44.8557 75.4513 44.0922 76.212 43.5602 77.1283C42.1399 77.1283 40.7778 76.5645 39.7734 75.5608C38.7691 74.5572 38.2049 73.196 38.2049 71.7766V40.8455H71.4865C71.8878 40.8455 72.2725 41.0047 72.5562 41.2883C72.84 41.5718 72.9993 41.9563 72.9993 42.3572Z" fill="#6C6E70"/>
<path d="M72.9993 66.5458V69.5694H44.2561C43.8549 69.5694 43.4701 69.4101 43.1864 69.1266C42.9027 68.8431 42.7433 68.4586 42.7433 68.0576C42.7433 67.6567 42.9027 67.2721 43.1864 66.9886C43.4701 66.7051 43.8549 66.5458 44.2561 66.5458H72.9993Z" fill="#3B3D40"/>
<path d="M54.8457 80.1519C54.8457 81.3479 54.4908 82.5171 53.8259 83.5115C53.161 84.506 52.2159 85.281 51.1102 85.7387C50.0045 86.1964 48.7878 86.3162 47.614 86.0829C46.4402 85.8495 45.3619 85.2736 44.5157 84.4279C43.6694 83.5822 43.0931 82.5047 42.8596 81.3316C42.6261 80.1586 42.7459 78.9427 43.2039 77.8378C43.6619 76.7328 44.4375 75.7884 45.4326 75.1239C46.4278 74.4594 47.5977 74.1048 48.7945 74.1048C50.3994 74.1048 51.9385 74.7419 53.0734 75.8759C54.2082 77.01 54.8457 78.5481 54.8457 80.1519Z" fill="#27282D"/>
<path d="M53.227 84.264C49.0971 88.7993 41.5936 84.8233 42.8492 79.0634C46.9943 74.5734 54.4826 78.5192 53.227 84.264Z" fill="#0D1218"/>
<path d="M91.153 80.1519C91.153 81.3479 90.7981 82.5171 90.1331 83.5115C89.4682 84.506 88.5232 85.281 87.4174 85.7387C86.3117 86.1964 85.095 86.3162 83.9212 86.0829C82.7474 85.8495 81.6692 85.2736 80.8229 84.4279C79.9766 83.5822 79.4003 82.5047 79.1668 81.3316C78.9333 80.1586 79.0532 78.9427 79.5112 77.8378C79.9692 76.7328 80.7447 75.7884 81.7399 75.1239C82.735 74.4594 83.9049 74.1048 85.1017 74.1048C86.7066 74.1048 88.2458 74.7419 89.3806 75.8759C90.5154 77.01 91.153 78.5481 91.153 80.1519Z" fill="#27282D"/>
<path d="M89.5343 84.264C85.4043 88.7993 77.9008 84.8233 79.1564 79.0634C83.3015 74.5734 90.7899 78.5192 89.5343 84.264Z" fill="#0D1218"/>
<path d="M50.3073 80.1519C50.3073 79.751 50.1479 79.3664 49.8642 79.0829C49.5805 78.7994 49.1957 78.6401 48.7945 78.6401C48.3933 78.6401 48.0085 78.7994 47.7248 79.0829C47.4411 79.3664 47.2817 79.751 47.2817 80.1519C47.2817 80.5529 47.4411 80.9374 47.7248 81.2209C48.0085 81.5044 48.3933 81.6637 48.7945 81.6637C49.1957 81.6637 49.5805 81.5044 49.8642 81.2209C50.1479 80.9374 50.3073 80.5529 50.3073 80.1519Z" fill="#F6D000"/>
<path d="M86.6145 80.1519C86.6145 79.751 86.4552 79.3664 86.1715 79.0829C85.8878 78.7994 85.503 78.6401 85.1017 78.6401C84.7005 78.6401 84.3157 78.7994 84.032 79.0829C83.7483 79.3664 83.5889 79.751 83.5889 80.1519C83.5889 80.5529 83.7483 80.9374 84.032 81.2209C84.3157 81.5044 84.7005 81.6637 85.1017 81.6637C85.503 81.6637 85.8878 81.5044 86.1715 81.2209C86.4552 80.9374 86.6145 80.5529 86.6145 80.1519Z" fill="#F6D000"/>
<path d="M51.8201 62.0105C50.9881 62.0105 51.1696 62.0105 46.2076 57.0367C45.9228 56.752 45.7627 56.3659 45.7627 55.9633C45.7627 55.5607 45.9228 55.1746 46.2076 54.89C46.4925 54.6053 46.8789 54.4453 47.2817 54.4453C47.6846 54.4453 48.0709 54.6053 48.3558 54.89L51.8958 58.4426L61.4264 50.279C61.7313 50.0184 62.1274 49.8895 62.5274 49.9207C62.9274 49.9519 63.2987 50.1406 63.5595 50.4453C63.8202 50.75 63.9492 51.1458 63.918 51.5456C63.8868 51.9453 63.698 52.3163 63.393 52.5769C51.9563 62.3733 52.6219 62.0105 51.8201 62.0105Z" fill="#F6D000"/>
</svg>
