<svg width="124" height="125" viewBox="0 0 124 125" fill="none" xmlns="http://www.w3.org/2000/svg">
<path d="M61.9998 9.78627C33.1204 9.78627 9.70798 33.3877 9.70798 62.5005C9.70798 91.6123 33.1202 115.213 61.9998 115.213C90.8794 115.213 114.292 91.6123 114.292 62.5005C114.292 33.3877 90.8791 9.78627 61.9998 9.78627Z" fill="#F6D000"/>
<path d="M61.9998 0C27.8127 0 0 28.0373 0 62.5005C0 96.963 27.8127 125 61.9998 125C96.1868 125 124 96.963 124 62.5005C124 28.0373 96.1868 0 61.9998 0ZM61.9998 122.998C28.908 122.998 1.98619 95.8588 1.98619 62.5005C1.98619 29.1417 28.908 2.00221 61.9998 2.00221C95.0912 2.00221 122.014 29.1417 122.014 62.5005C122.014 95.8588 95.0912 122.998 61.9998 122.998Z" fill="#F6D000"/>
<path d="M92.4911 50.602C92.4911 50.602 76.9474 50.602 72.5626 50.602C70.3549 50.602 69.9421 48.8395 70.7308 46.4929C71.5084 44.1787 72.3275 41.3051 72.3275 37.7024C72.3275 33.1892 69.7121 27.4157 65.3064 27.4157C62.5745 27.4157 63.5403 35.2941 59.7194 43.7429C57.591 48.449 52.0489 56.4216 49.7432 58.5223V82.1652C50.8658 83.9777 53.9419 88.0255 59.0289 88.0255C63.7163 88.0255 84.9495 88.0096 84.9495 88.0096C91.6975 88.0096 91.7734 79.4515 87.3118 78.7152L88.5221 78.7581C92.7931 78.2939 94.5853 70.6458 89.1232 69.2534L90.1417 69.2348C94.2223 68.8027 96.0959 61.4814 90.4116 59.849L91.761 59.7113C97.8226 59.6255 98.2231 50.6179 92.4911 50.602Z" fill="#45484F"/>
<path d="M49.743 56.1294V85.0596C49.743 86.6985 48.423 88.0257 46.8003 88.0257H35.8263C34.2002 88.0257 32.8838 86.6985 32.8838 85.0596V56.1294C32.8838 54.4939 34.2002 53.163 35.8263 53.163H46.8003C48.423 53.163 49.743 54.4939 49.743 56.1294Z" fill="#111820"/>
<path d="M44.26 61.1434C45.5038 61.1434 46.5122 60.1269 46.5122 58.873C46.5122 57.6192 45.5038 56.6027 44.26 56.6027C43.0161 56.6027 42.0078 57.6192 42.0078 58.873C42.0078 60.1269 43.0161 61.1434 44.26 61.1434Z" fill="#F6D000"/>
<path d="M32.5123 48.1466C30.3367 47.5975 28.6389 45.885 28.0931 43.6924L28.0007 43.3181L27.9071 43.6924C27.3622 45.885 25.6634 47.5975 23.4885 48.1466L23.117 48.2407L23.4885 48.335C25.6636 48.8843 27.3624 50.5963 27.9071 52.7887L28.0007 53.1627L28.0931 52.7887C28.6391 50.5961 30.3367 48.8841 32.5123 48.335L32.8838 48.2407L32.5123 48.1466Z" fill="#FEFEFE"/>
<path d="M49.4356 38.077C46.1535 37.2485 43.5923 34.6652 42.7688 31.3571L42.6295 30.7924L42.4885 31.3571C41.6667 34.6652 39.1038 37.2485 35.8224 38.077L35.2622 38.2191L35.8224 38.3613C39.1038 39.1897 41.6664 41.7725 42.4885 45.0804L42.6295 45.6449L42.7688 45.0804C43.5923 41.7725 46.1538 39.1899 49.4356 38.3613L49.9961 38.2191L49.4356 38.077Z" fill="#FEFEFE"/>
<path d="M69.6187 97.9154C66.5044 97.1294 64.0737 94.6779 63.2923 91.5387L63.1603 91.0029L63.0263 91.5387C62.2463 94.6779 59.8144 97.1294 56.7006 97.9154L56.1688 98.0502L56.7006 98.1851C59.8144 98.9713 62.2463 101.422 63.0263 104.561L63.1603 105.097L63.2923 104.561C64.0737 101.422 66.5044 98.9713 69.6187 98.1851L70.1505 98.0502L69.6187 97.9154Z" fill="#E7E8E9"/>
<path d="M93.5835 38.4664C90.6063 37.7152 88.2829 35.3716 87.5357 32.3708L87.4093 31.8586L87.2814 32.3708C86.536 35.3716 84.2111 37.7152 81.2346 38.4664L80.7264 38.5953L81.2346 38.7243C84.2111 39.4757 86.536 41.8186 87.2814 44.8191L87.4093 45.3311L87.5357 44.8191C88.2829 41.8186 90.6063 39.4757 93.5835 38.7243L94.0919 38.5953L93.5835 38.4664Z" fill="#FEFEFE"/>
<path d="M80.4877 94.3382C79.0884 93.9851 77.9965 92.8836 77.6454 91.4733L77.5861 91.2326L77.526 91.4733C77.1757 92.8836 76.083 93.9851 74.684 94.3382L74.445 94.3988L74.684 94.4595C76.083 94.8127 77.1757 95.914 77.526 97.3243L77.5861 97.5647L77.6454 97.3243C77.9965 95.914 79.0887 94.8127 80.4877 94.4595L80.7267 94.3988L80.4877 94.3382Z" fill="#E7E8E9"/>
</svg>
