<svg width="126" height="126" viewBox="0 0 126 126" fill="none" xmlns="http://www.w3.org/2000/svg">
<path d="M62.9998 9.86456C33.6546 9.86456 9.86456 33.6549 9.86456 63.0005C9.86456 92.3452 33.6544 116.135 62.9998 116.135C92.3452 116.135 116.135 92.3452 116.135 63.0005C116.135 33.6549 92.3449 9.86456 62.9998 9.86456Z" fill="#F6D000"/>
<path d="M62.9998 0C28.2613 0 0 28.2616 0 63.0005C0 97.7387 28.2613 126 62.9998 126C97.7382 126 126 97.7387 126 63.0005C126 28.2616 97.7382 0 62.9998 0ZM62.9998 123.982C29.3743 123.982 2.01822 96.6257 2.01822 63.0005C2.01822 29.3748 29.3743 2.01822 62.9998 2.01822C96.625 2.01822 123.982 29.3748 123.982 63.0005C123.982 96.6257 96.625 123.982 62.9998 123.982Z" fill="#F6D000"/>
<path d="M92.2424 72.7517L88.5338 70.6072C89.2513 68.1964 89.6384 65.6403 89.6384 62.9958C89.6384 60.3592 89.2513 57.8034 88.5338 55.3928L92.2424 53.2483C93.1617 52.7162 93.4759 51.5471 92.9438 50.6278L88.687 43.2588C88.1548 42.3395 86.9776 42.025 86.0667 42.5492L82.3497 44.6937C78.8508 41.0011 74.2953 38.3 69.1733 37.0828V32.8015C69.1733 31.7451 68.3187 30.8824 67.2546 30.8824H58.7405C57.684 30.8824 56.8213 31.7451 56.8213 32.8015V37.0828C51.7018 38.3 47.1541 41.0011 43.6469 44.6937L39.9299 42.5492C39.0187 42.025 37.842 42.3395 37.3098 43.2588L33.0525 50.6278C32.5288 51.5471 32.8351 52.7162 33.7544 53.2483L37.4709 55.3928C36.7535 57.8036 36.3666 60.3594 36.3666 62.9958C36.3666 65.6403 36.7535 68.1964 37.4709 70.6072L33.7623 72.7517C32.843 73.2838 32.5288 74.4529 33.0528 75.3722L37.3101 82.7494C37.8423 83.6606 39.019 83.9745 39.9301 83.4508L43.6471 81.3063C44.1082 81.7918 44.5884 82.259 45.0843 82.7089L52.0432 72.5955C49.7945 70.0315 48.4282 66.674 48.4282 62.9958C48.4282 54.9572 54.9511 48.4347 62.9975 48.4347C71.0442 48.4347 77.5688 54.957 77.5688 62.9958C77.5688 71.0423 71.0445 77.5651 62.9975 77.5651C61.9315 77.5651 60.8933 77.4475 59.8925 77.2301L54.4199 88.2146C55.2053 88.4812 56.0053 88.7161 56.8216 88.9088V93.1982C56.8216 94.2547 57.6843 95.1174 58.7407 95.1174H67.2548C68.3192 95.1174 69.1735 94.2547 69.1735 93.1982V88.9088C74.2955 87.6997 78.8511 84.9986 82.3499 81.3063L86.0669 83.4508C86.9781 83.9745 88.1553 83.6606 88.6872 82.7494L92.944 75.3722C93.476 74.4529 93.1617 73.2838 92.2424 72.7517Z" fill="#111820"/>
<path d="M71.9065 55.9151L66.9198 64.3662L59.8982 60.2228L64.8848 51.7717C60.9381 51.2758 56.891 53.1055 54.7408 56.7492C52.6077 60.3639 52.9415 64.7494 55.2337 67.958L38.4068 92.4128C36.4553 95.3973 37.3911 99.4073 40.4623 101.22C43.5335 103.032 47.4961 101.912 49.165 98.761L62.4034 72.1886C66.3205 72.6439 70.3206 70.8157 72.4535 67.201C74.6039 63.5574 74.2488 59.1301 71.9065 55.9151ZM46.452 96.9029C45.6199 98.3131 43.8021 98.7815 42.3921 97.9494C40.9819 97.1173 40.5132 95.2997 41.3453 93.8895C42.1774 92.4793 43.995 92.0106 45.4052 92.8427C46.8154 93.6748 47.2841 95.4927 46.452 96.9029Z" fill="#45484F"/>
<path d="M46.452 96.9029C45.6199 98.3131 43.8021 98.7815 42.3921 97.9494C40.9819 97.1173 40.5132 95.2997 41.3453 93.8895C42.1774 92.4793 43.995 92.0106 45.4052 92.8427C46.8154 93.6748 47.2841 95.4927 46.452 96.9029Z" fill="#F6D000"/>
<path d="M89.4664 98.4277L90.1103 98.5891L89.4664 98.7504C85.6971 99.6949 82.7553 102.638 81.8111 106.407L81.649 107.05L81.4874 106.407C80.5432 102.638 77.6007 99.6949 73.8303 98.7504L73.189 98.5891L73.8303 98.4277C77.6009 97.4832 80.5434 94.5398 81.4874 90.7724L81.649 90.1298L81.8111 90.7724C82.7553 94.5398 85.6971 97.4832 89.4664 98.4277Z" fill="#FEFAE6"/>
<path d="M101.937 87.2812L102.282 87.3677L101.937 87.4541C99.9143 87.9609 98.3358 89.5398 97.8294 91.5625L97.7424 91.9074L97.6557 91.5625C97.149 89.5398 95.5703 87.9609 93.5471 87.4541L93.2029 87.3677L93.5471 87.2812C95.5703 86.7745 97.1492 85.195 97.6557 83.1736L97.7424 82.8289L97.8294 83.1736C98.3358 85.195 99.9143 86.7745 101.937 87.2812Z" fill="#FEFAE6"/>
<path d="M86.265 26.2364L86.7097 26.3478L86.265 26.4593C83.6617 27.1115 81.6301 29.1438 80.9779 31.7471L80.866 32.191L80.7543 31.7471C80.1023 29.1438 78.07 27.1115 75.466 26.4593L75.0231 26.3478L75.466 26.2364C78.07 25.5842 80.1021 23.5514 80.7543 20.9494L80.866 20.5056L80.9779 20.9494C81.6301 23.5514 83.6617 25.5842 86.265 26.2364Z" fill="#E7E8E9"/>
<path d="M33.2823 83.9807L33.597 84.0595L33.2823 84.1384C31.4392 84.6001 30.0008 86.039 29.5393 87.882L29.46 88.1965L29.381 87.882C28.9192 86.039 27.4806 84.6001 25.637 84.1384L25.3235 84.0595L25.637 83.9807C27.4806 83.519 28.9192 82.0796 29.381 80.2378L29.46 79.9235L29.5393 80.2378C30.0011 82.0796 31.4392 83.519 33.2823 83.9807Z" fill="white"/>
<path d="M31.3725 70.893L31.8706 71.0178L31.3725 71.1426C28.4557 71.8734 26.1793 74.1505 25.4485 77.0675L25.323 77.5651L25.198 77.0675C24.4675 74.1508 22.1903 71.8736 19.2728 71.1426L18.7765 71.0178L19.2728 70.893C22.1906 70.1622 24.4675 67.8844 25.198 64.9691L25.323 64.472L25.4485 64.9691C26.1791 67.8844 28.4555 70.1622 31.3725 70.893Z" fill="white"/>
</svg>
