<svg width="126" height="128" viewBox="0 0 126 128" fill="none" xmlns="http://www.w3.org/2000/svg">
<path d="M62.9998 10.0211C33.6546 10.0211 9.86456 34.1891 9.86456 64.0005C9.86456 93.811 33.6544 117.978 62.9998 117.978C92.3452 117.978 116.135 93.811 116.135 64.0005C116.135 34.1891 92.3449 10.0211 62.9998 10.0211Z" fill="#F6D000"/>
<path d="M62.9998 0C28.2613 0 0 28.7102 0 64.0005C0 99.2901 28.2613 128 62.9998 128C97.7382 128 126 99.2901 126 64.0005C126 28.7102 97.7382 0 62.9998 0ZM62.9998 125.95C29.3743 125.95 2.01822 98.1594 2.01822 64.0005C2.01822 29.8411 29.3743 2.05001 62.9998 2.05001C96.625 2.05001 123.982 29.8408 123.982 64.0005C123.982 98.1594 96.625 125.95 62.9998 125.95Z" fill="#F6D000"/>
<path d="M78.9061 23.4945C74.7232 22.4296 71.4588 19.1117 70.4098 14.8646L70.2312 14.1385L70.0525 14.8646C69.0045 19.1117 65.7389 22.4299 61.5569 23.4945L60.8424 23.6762L61.5569 23.8569C65.7389 24.9216 69.0043 28.2393 70.0525 32.4879L70.2312 33.213L70.4098 32.4879C71.4588 28.2393 74.7232 24.9219 78.9061 23.8569L79.6201 23.6762L78.9061 23.4945Z" fill="#E7E8E9"/>
<path d="M90.8497 24.6024C89.3419 24.2186 88.1644 23.0227 87.7864 21.4912L87.7222 21.2299L87.6572 21.4912C87.2795 23.0229 86.1022 24.2186 84.5939 24.6024L84.3367 24.6684L84.5939 24.7344C86.102 25.1179 87.2795 26.314 87.6572 27.8463L87.7222 28.1078L87.7864 27.8463C88.1644 26.3143 89.3419 25.1179 90.8497 24.7344L91.1071 24.6684L90.8497 24.6024Z" fill="#E7E8E9"/>
<path d="M35.6051 66.4779C33.0535 65.8284 31.0612 63.8037 30.4216 61.2121L30.3121 60.7701L30.2029 61.2121C29.5638 63.8037 27.571 65.8284 25.0194 66.4779L24.5841 66.5891L25.0194 66.7001C27.5713 67.3496 29.5638 69.3735 30.2029 71.9659L30.3121 72.4081L30.4216 71.9659C31.061 69.3732 33.0535 67.3496 35.6051 66.7001L36.0414 66.5891L35.6051 66.4779Z" fill="#E7E8E9"/>
<path d="M82.7138 93.9096C80.2237 93.2764 78.2803 91.3009 77.6555 88.7718L77.5498 88.3401L77.4428 88.7718C76.8192 91.3012 74.8749 93.2764 72.3853 93.9096L71.9601 94.0183L72.3853 94.1269C74.8749 94.7604 76.8192 96.7351 77.4428 99.2643L77.5498 99.6957L77.6555 99.2643C78.2803 96.7351 80.2237 94.7604 82.7138 94.1269L83.139 94.0183L82.7138 93.9096Z" fill="#E7E8E9"/>
<path d="M48.6867 89.0822C48.6988 89.1834 48.719 89.2845 48.7568 89.3839C48.805 89.5104 49.9111 92.5011 47.6631 93.9989C47.2579 94.269 46.7497 94.412 46.1921 94.4605C46.1612 94.1252 46.1113 93.7861 46.0416 93.446C45.5194 90.8968 44.0358 89.0923 42.0731 88.6189C40.4544 88.2287 38.8522 88.9919 38.175 90.4749C37.6266 91.6764 37.6834 93.6019 39.6497 95.0754C40.4638 95.6855 41.9271 96.3828 43.5567 96.7464C43.3393 97.5315 42.9482 98.1888 42.4156 98.5947C41.4105 99.3604 39.9909 99.139 39.2337 98.939C37.3111 98.4305 35.3929 96.9756 34.7716 95.5545C34.4946 94.9213 33.7653 94.6357 33.1412 94.9168C32.5179 95.1981 32.2367 95.9395 32.5134 96.573C33.4394 98.6915 35.9468 100.663 38.6111 101.368C39.3009 101.55 39.9712 101.641 40.6088 101.64C41.8658 101.64 42.9961 101.289 43.8979 100.602C44.9904 99.7697 45.7328 98.4845 46.0523 96.9901C47.1109 96.9447 48.1404 96.6824 49.018 96.0976C51.1414 94.6826 51.6333 92.4928 51.5229 90.6868C50.4828 90.2149 49.5358 89.6715 48.6867 89.0822ZM41.1163 93.0555C40.465 92.5676 40.2034 91.9976 40.4164 91.5311C40.5399 91.2603 40.8294 91.0273 41.2314 91.0273C41.3169 91.0273 41.4073 91.0379 41.5024 91.0607C42.6868 91.3466 43.3746 92.7443 43.6232 93.9575C43.6385 94.0323 43.6526 94.1074 43.6649 94.1822C42.6169 93.9018 41.6625 93.4649 41.1163 93.0555Z" fill="#111820"/>
<path d="M83.7282 29.1032C86.9751 29.3727 96.4174 34.5269 97.5193 42.7548C98.8482 52.6775 75.7117 90.484 62.143 92.2586C60.7688 92.4414 59.4058 92.474 58.085 92.3631C48.4808 91.5649 43.3158 84.7132 43.2427 81.4374C43.1706 78.1606 47.8642 72.315 51.3675 71.6956C54.1326 71.3203 56.7274 73.3154 58.2631 74.7397C59.8666 76.2268 61.802 77.829 66.2207 75.9753C70.8229 74.0445 82.9819 56.8308 83.2786 52.1472C83.4844 48.9505 80.4433 47.624 77.8687 45.2078C76.6394 44.0528 74.8687 41.4439 75.0752 38.2898C75.2316 35.8403 79.9717 28.7907 83.7282 29.1032Z" fill="#41444A"/>
<path d="M57.2892 62.3488C56.7032 62.3488 56.1832 61.9236 56.0752 61.3173C54.8179 54.2645 59.4433 47.4875 66.3857 46.2103C67.0567 46.0865 67.6998 46.5395 67.8214 47.2215C67.9429 47.9034 67.4972 48.5564 66.826 48.6799C61.2239 49.7104 57.4916 55.179 58.506 60.87C58.6276 61.5519 58.1819 62.205 57.5106 62.3285C57.4362 62.3423 57.3624 62.3488 57.2892 62.3488Z" fill="#111820"/>
<path d="M50.4445 62.0185C49.8584 62.0185 49.3384 61.5934 49.2304 60.987C48.3768 56.1985 49.4098 51.3591 52.1386 47.3605C54.8678 43.3614 58.9668 40.6817 63.6806 39.8145C64.3519 39.6908 64.9948 40.1438 65.1163 40.8257C65.2379 41.5076 64.7922 42.1607 64.1209 42.2842C60.0563 43.0318 56.5221 45.3426 54.1689 48.7906C51.8159 52.2386 50.9252 56.4111 51.6612 60.54C51.7828 61.2219 51.3371 61.8749 50.6658 61.9984C50.5917 62.012 50.5176 62.0185 50.4445 62.0185Z" fill="#111820"/>
<path d="M43.1921 61.6624C42.606 61.6624 42.086 61.2372 41.978 60.6308C39.6818 47.7498 48.1293 35.3724 60.8091 33.0398C61.4801 32.9158 62.1232 33.3689 62.2447 34.051C62.3663 34.7329 61.9206 35.386 61.2493 35.5095C49.9101 37.5956 42.3555 48.6644 44.4088 60.1836C44.5304 60.8655 44.0847 61.5186 43.4134 61.642C43.3391 61.6556 43.2652 61.6624 43.1921 61.6624Z" fill="#111820"/>
</svg>
