<svg width="21" height="24" viewBox="0 0 21 24" fill="none" xmlns="http://www.w3.org/2000/svg">
<mask id="path-1-inside-1_69_34" fill="white">
<path fill-rule="evenodd" clip-rule="evenodd" d="M2.05714 0H18.5143C19.6504 0 20.5714 1.07452 20.5714 2.4V21.6C20.5714 22.9255 19.6504 24 18.5143 24H2.05714C0.921014 24 0 22.9255 0 21.6V2.4C0 1.07452 0.921014 0 2.05714 0ZM2.05714 2.4V21.6H18.5143V2.4H2.05714ZM11.3143 12.0053H9.394V9.60527H11.3143V8.4C11.3143 6.41178 12.6958 4.8 14.4 4.8H15.4286V7.2H14.4C13.8319 7.2 13.3714 7.73726 13.3714 8.4V9.60527H15.4105V12.0053H13.3714V19.2H11.3143V12.0053Z"/>
<path fill-rule="evenodd" clip-rule="evenodd" d="M1.21732 1.4H19.3541C19.1377 1.15256 18.8413 1 18.5143 1H2.05714C1.73018 1 1.43375 1.15256 1.21732 1.4ZM1.2 1.4202C0.987911 1.67271 0.857143 2.01854 0.857143 2.4V21.6C0.857143 21.9815 0.987911 22.3273 1.2 22.5798V1.4202ZM1.21732 22.6C1.43375 22.8474 1.73018 23 2.05714 23H18.5143C18.8413 23 19.1377 22.8474 19.3541 22.6H1.21732ZM19.3714 22.5798C19.5835 22.3273 19.7143 21.9815 19.7143 21.6V2.4C19.7143 2.01854 19.5835 1.67271 19.3714 1.4202V22.5798ZM12.1714 11.0053V18.2H12.5143V11.0053H14.5533V10.6053H12.5143V8.4C12.5143 7.18497 13.3585 6.2 14.4 6.2H14.5714V5.8H14.4C13.1692 5.8 12.1714 6.96406 12.1714 8.4V10.6053H10.2511V11.0053H12.1714ZM11.3143 12.0053V19.2H13.3714V12.0053H15.4105V9.60527H13.3714V8.4C13.3714 7.73726 13.8319 7.2 14.4 7.2H15.4286V4.8H14.4C12.6958 4.8 11.3143 6.41178 11.3143 8.4V9.60527H9.394V12.0053H11.3143ZM2.05714 21.6V2.4H18.5143V21.6H2.05714ZM18.5143 0H2.05714C0.921014 0 0 1.07452 0 2.4V21.6C0 22.9255 0.921014 24 2.05714 24H18.5143C19.6504 24 20.5714 22.9255 20.5714 21.6V2.4C20.5714 1.07452 19.6504 0 18.5143 0Z"/>
</mask>
<path fill-rule="evenodd" clip-rule="evenodd" d="M2.05714 0H18.5143C19.6504 0 20.5714 1.07452 20.5714 2.4V21.6C20.5714 22.9255 19.6504 24 18.5143 24H2.05714C0.921014 24 0 22.9255 0 21.6V2.4C0 1.07452 0.921014 0 2.05714 0ZM2.05714 2.4V21.6H18.5143V2.4H2.05714ZM11.3143 12.0053H9.394V9.60527H11.3143V8.4C11.3143 6.41178 12.6958 4.8 14.4 4.8H15.4286V7.2H14.4C13.8319 7.2 13.3714 7.73726 13.3714 8.4V9.60527H15.4105V12.0053H13.3714V19.2H11.3143V12.0053Z" fill="#FAF5FF"/>
<path fill-rule="evenodd" clip-rule="evenodd" d="M1.21732 1.4H19.3541C19.1377 1.15256 18.8413 1 18.5143 1H2.05714C1.73018 1 1.43375 1.15256 1.21732 1.4ZM1.2 1.4202C0.987911 1.67271 0.857143 2.01854 0.857143 2.4V21.6C0.857143 21.9815 0.987911 22.3273 1.2 22.5798V1.4202ZM1.21732 22.6C1.43375 22.8474 1.73018 23 2.05714 23H18.5143C18.8413 23 19.1377 22.8474 19.3541 22.6H1.21732ZM19.3714 22.5798C19.5835 22.3273 19.7143 21.9815 19.7143 21.6V2.4C19.7143 2.01854 19.5835 1.67271 19.3714 1.4202V22.5798ZM12.1714 11.0053V18.2H12.5143V11.0053H14.5533V10.6053H12.5143V8.4C12.5143 7.18497 13.3585 6.2 14.4 6.2H14.5714V5.8H14.4C13.1692 5.8 12.1714 6.96406 12.1714 8.4V10.6053H10.2511V11.0053H12.1714ZM11.3143 12.0053V19.2H13.3714V12.0053H15.4105V9.60527H13.3714V8.4C13.3714 7.73726 13.8319 7.2 14.4 7.2H15.4286V4.8H14.4C12.6958 4.8 11.3143 6.41178 11.3143 8.4V9.60527H9.394V12.0053H11.3143ZM2.05714 21.6V2.4H18.5143V21.6H2.05714ZM18.5143 0H2.05714C0.921014 0 0 1.07452 0 2.4V21.6C0 22.9255 0.921014 24 2.05714 24H18.5143C19.6504 24 20.5714 22.9255 20.5714 21.6V2.4C20.5714 1.07452 19.6504 0 18.5143 0Z" fill="#FAF5FF"/>
<path d="M2.05714 2.4V1.9H1.55714V2.4H2.05714ZM2.05714 21.6H1.55714V22.1H2.05714V21.6ZM18.5143 21.6V22.1H19.0143V21.6H18.5143ZM18.5143 2.4H19.0143V1.9H18.5143V2.4ZM11.3143 12.0053H11.8143V11.5053H11.3143V12.0053ZM9.394 12.0053H8.894V12.5053H9.394V12.0053ZM9.394 9.60527V9.10527H8.894V9.60527H9.394ZM11.3143 9.60527V10.1053H11.8143V9.60527H11.3143ZM15.4286 4.8H15.9286V4.3H15.4286V4.8ZM15.4286 7.2V7.7H15.9286V7.2H15.4286ZM13.3714 9.60527H12.8714V10.1053H13.3714V9.60527ZM15.4105 9.60527H15.9105V9.10527H15.4105V9.60527ZM15.4105 12.0053V12.5053H15.9105V12.0053H15.4105ZM13.3714 12.0053V11.5053H12.8714V12.0053H13.3714ZM13.3714 19.2V19.7H13.8714V19.2H13.3714ZM11.3143 19.2H10.8143V19.7H11.3143V19.2ZM2.05714 0.5H18.5143V-0.5H2.05714V0.5ZM18.5143 0.5C19.3047 0.5 20.0714 1.27557 20.0714 2.4H21.0714C21.0714 0.873461 19.9961 -0.5 18.5143 -0.5V0.5ZM20.0714 2.4V21.6H21.0714V2.4H20.0714ZM20.0714 21.6C20.0714 22.7244 19.3047 23.5 18.5143 23.5V24.5C19.9961 24.5 21.0714 23.1265 21.0714 21.6H20.0714ZM18.5143 23.5H2.05714V24.5H18.5143V23.5ZM2.05714 23.5C1.26669 23.5 0.5 22.7244 0.5 21.6H-0.5C-0.5 23.1265 0.575339 24.5 2.05714 24.5V23.5ZM0.5 21.6V2.4H-0.5V21.6H0.5ZM0.5 2.4C0.5 1.27557 1.26669 0.5 2.05714 0.5V-0.5C0.575339 -0.5 -0.5 0.873461 -0.5 2.4H0.5ZM1.55714 2.4V21.6H2.55714V2.4H1.55714ZM2.05714 22.1H18.5143V21.1H2.05714V22.1ZM19.0143 21.6V2.4H18.0143V21.6H19.0143ZM18.5143 1.9H2.05714V2.9H18.5143V1.9ZM11.3143 11.5053H9.394V12.5053H11.3143V11.5053ZM9.894 12.0053V9.60527H8.894V12.0053H9.894ZM9.394 10.1053H11.3143V9.10527H9.394V10.1053ZM11.8143 9.60527V8.4H10.8143V9.60527H11.8143ZM11.8143 8.4C11.8143 6.61283 13.0415 5.3 14.4 5.3V4.3C12.3501 4.3 10.8143 6.21072 10.8143 8.4H11.8143ZM14.4 5.3H15.4286V4.3H14.4V5.3ZM14.9286 4.8V7.2H15.9286V4.8H14.9286ZM15.4286 6.7H14.4V7.7H15.4286V6.7ZM14.4 6.7C13.4863 6.7 12.8714 7.5362 12.8714 8.4H13.8714C13.8714 7.93831 14.1776 7.7 14.4 7.7V6.7ZM12.8714 8.4V9.60527H13.8714V8.4H12.8714ZM13.3714 10.1053H15.4105V9.10527H13.3714V10.1053ZM14.9105 9.60527V12.0053H15.9105V9.60527H14.9105ZM15.4105 11.5053H13.3714V12.5053H15.4105V11.5053ZM12.8714 12.0053V19.2H13.8714V12.0053H12.8714ZM13.3714 18.7H11.3143V19.7H13.3714V18.7ZM11.8143 19.2V12.0053H10.8143V19.2H11.8143ZM1.21732 1.4L0.464631 0.741621L-0.985963 2.4H1.21732V1.4ZM19.3541 1.4V2.4H21.5574L20.1068 0.74162L19.3541 1.4ZM1.2 1.4202H2.2V-1.32519L0.43427 0.777042L1.2 1.4202ZM1.2 22.5798L0.434269 23.223L2.2 25.3252V22.5798H1.2ZM1.21732 22.6V21.6H-0.985968L0.464632 23.2584L1.21732 22.6ZM19.3541 22.6L20.1068 23.2584L21.5574 21.6H19.3541V22.6ZM19.3714 22.5798H18.3714V25.3252L20.1372 23.223L19.3714 22.5798ZM19.3714 1.4202L20.1372 0.777043L18.3714 -1.32519V1.4202H19.3714ZM12.1714 11.0053H13.1714V10.0053H12.1714V11.0053ZM12.1714 18.2H11.1714V19.2H12.1714V18.2ZM12.5143 18.2V19.2H13.5143V18.2H12.5143ZM12.5143 11.0053V10.0053H11.5143V11.0053H12.5143ZM14.5533 11.0053V12.0053H15.5533V11.0053H14.5533ZM14.5533 10.6053H15.5533V9.60527H14.5533V10.6053ZM12.5143 10.6053H11.5143V11.6053H12.5143V10.6053ZM14.5714 6.2V7.2H15.5714V6.2H14.5714ZM14.5714 5.8H15.5714V4.8H14.5714V5.8ZM12.1714 10.6053V11.6053H13.1714V10.6053H12.1714ZM10.2511 10.6053V9.60527H9.25114V10.6053H10.2511ZM10.2511 11.0053H9.25114V12.0053H10.2511V11.0053ZM18.5143 2C18.5195 2 18.5264 2.0007 18.5383 2.00651C18.5517 2.01302 18.5747 2.02786 18.6014 2.05838L20.1068 0.74162C19.7268 0.307224 19.1674 0 18.5143 0V2ZM2.05714 2H18.5143V0H2.05714V2ZM1.97 2.05838C1.99669 2.02786 2.01974 2.01302 2.03311 2.00651C2.04506 2.0007 2.05191 2 2.05714 2V0C1.404 0 0.844601 0.307223 0.464631 0.741621L1.97 2.05838ZM1.85714 2.4C1.85714 2.24499 1.91053 2.12908 1.96573 2.06337L0.43427 0.777042C0.0652885 1.21634 -0.142857 1.79208 -0.142857 2.4H1.85714ZM1.85714 21.6V2.4H-0.142857V21.6H1.85714ZM1.96573 21.9366C1.91053 21.8709 1.85714 21.755 1.85714 21.6H-0.142857C-0.142857 22.2079 0.0652889 22.7837 0.434269 23.223L1.96573 21.9366ZM2.05714 22C2.05191 22 2.04506 21.9993 2.03311 21.9935C2.01974 21.987 1.99669 21.9721 1.97 21.9416L0.464632 23.2584C0.844601 23.6928 1.404 24 2.05714 24V22ZM18.5143 22H2.05714V24H18.5143V22ZM18.6014 21.9416C18.5747 21.9721 18.5517 21.987 18.5383 21.9935C18.5264 21.9993 18.5195 22 18.5143 22V24C19.1674 24 19.7268 23.6928 20.1068 23.2584L18.6014 21.9416ZM18.7143 21.6C18.7143 21.755 18.6609 21.8709 18.6057 21.9366L20.1372 23.223C20.5061 22.7837 20.7143 22.2079 20.7143 21.6H18.7143ZM18.7143 2.4V21.6H20.7143V2.4H18.7143ZM18.6057 2.06336C18.6609 2.12908 18.7143 2.24499 18.7143 2.4H20.7143C20.7143 1.79208 20.5061 1.21634 20.1372 0.777043L18.6057 2.06336ZM12.5143 17.2H12.1714V19.2H12.5143V17.2ZM13.5533 10.6053V11.0053H15.5533V10.6053H13.5533ZM14.4 5.2C12.6672 5.2 11.5143 6.78286 11.5143 8.4H13.5143C13.5143 7.58708 14.0499 7.2 14.4 7.2V5.2ZM14.5714 5.2H14.4V7.2H14.5714V5.2ZM13.5714 5.8V6.2H15.5714V5.8H13.5714ZM14.4 6.8H14.5714V4.8H14.4V6.8ZM13.1714 8.4C13.1714 7.36617 13.8605 6.8 14.4 6.8V4.8C12.4778 4.8 11.1714 6.56195 11.1714 8.4H13.1714ZM11.2511 11.0053V10.6053H9.25114V11.0053H11.2511ZM19.3541 0.4H1.21732V2.4H19.3541V0.4ZM0.2 1.4202V22.5798H2.2V1.4202H0.2ZM1.21732 23.6H19.3541V21.6H1.21732V23.6ZM20.3714 22.5798V1.4202H18.3714V22.5798H20.3714ZM13.1714 18.2V11.0053H11.1714V18.2H13.1714ZM11.5143 11.0053V18.2H13.5143V11.0053H11.5143ZM14.5533 10.0053H12.5143V12.0053H14.5533V10.0053ZM12.5143 11.6053H14.5533V9.60527H12.5143V11.6053ZM11.5143 8.4V10.6053H13.5143V8.4H11.5143ZM13.1714 10.6053V8.4H11.1714V10.6053H13.1714ZM10.2511 11.6053H12.1714V9.60527H10.2511V11.6053ZM12.1714 10.0053H10.2511V12.0053H12.1714V10.0053Z" fill="#FAF5FF" mask="url(#path-1-inside-1_69_34)"/>
</svg>
