<svg width="25" height="24" viewBox="0 0 25 24" fill="none" xmlns="http://www.w3.org/2000/svg">
<path d="M5.26669 0.260138L5.26654 0.260178C3.09804 0.818564 1.39129 2.52539 0.832901 4.69399C0.758808 4.98485 0.682586 5.43105 0.656628 5.73299C0.65126 5.80414 0.646535 6.38871 0.64325 7.45022C0.639969 8.51057 0.638094 10.0426 0.638094 12.0022C0.638094 17.8374 0.635415 18.2783 0.70823 18.7063C0.717572 18.7612 0.728156 18.8159 0.740148 18.8818C1.0314 20.4678 1.93853 21.8815 3.25937 22.811C4.18315 23.4602 5.22164 23.8294 6.3706 23.9166L5.26669 0.260138ZM5.26669 0.260138C5.54412 0.188002 6.00127 0.109927 6.26783 0.0858002C6.32056 0.0822799 7.04715 0.0780367 8.18332 0.0745241C9.32053 0.0710082 10.8632 0.0681954 12.5368 0.0672578M5.26669 0.260138L22.6383 22.1729M22.6383 22.1729L22.6385 22.1727C23.2327 21.5933 23.6552 20.9908 23.9778 20.2564L23.9779 20.2562C24.2262 19.6966 24.3692 19.1683 24.4736 18.4417C24.4735 18.442 24.4736 18.4412 24.4738 18.4386L24.4745 18.4287C24.4749 18.4202 24.4754 18.4087 24.4758 18.3943C24.4768 18.3655 24.4777 18.3258 24.4786 18.2757C24.4805 18.1756 24.4822 18.035 24.4839 17.8595C24.4873 17.5087 24.4903 17.0189 24.4929 16.4361C24.4981 15.2705 24.5018 13.7329 24.5036 12.1896C24.5053 10.6463 24.5052 9.09746 24.5027 7.90935C24.5002 6.71929 24.4953 5.89614 24.4881 5.79834C24.4045 4.71225 24.0706 3.72373 23.4845 2.83903L23.4845 2.839C22.5512 1.42885 21.1062 0.471686 19.4534 0.167431C19.3875 0.155433 19.3329 0.144845 19.2781 0.135502C18.8509 0.0627297 18.4109 0.0655946 12.5368 0.0672578M22.6383 22.1729C22.2924 22.5132 22.0521 22.7072 21.6943 22.9389C20.8877 23.46 20.0851 23.7496 19.0135 23.9021C19.0134 23.9021 19.0124 23.9022 19.0103 23.9024M22.6383 22.1729L19.0103 23.9024M12.5368 0.0672578L12.5367 0.000591146M12.5368 0.0672578L12.5367 0.000591146M12.5367 0.000591146L13.1995 0.000394486C18.4407 -0.00119827 18.87 -0.00132873 19.2872 0.0694861C19.3245 0.0758046 19.3616 0.082688 19.4021 0.0901856L19.4654 0.101855L12.5367 0.000591146ZM18.8429 2.014L18.8435 2.01407C20.6089 2.23119 22.0397 3.49039 22.4721 5.20498L22.4721 5.205C22.4795 5.2343 22.4866 5.26081 22.4933 5.28603C22.5151 5.36801 22.5334 5.43645 22.5472 5.54316C22.5653 5.68164 22.5765 5.88618 22.5836 6.2817C22.5964 6.98646 22.5963 8.30717 22.5961 10.9621C22.5961 11.2905 22.5961 11.6392 22.5961 12.0097C22.5961 14.6875 22.5951 16.215 22.5911 17.0975C22.5872 17.9772 22.5802 18.2199 22.5674 18.3225L22.5674 18.323C22.4721 19.0448 22.1979 19.7286 21.7617 20.3172C21.7617 20.3173 21.7617 20.3173 21.7616 20.3173L21.7081 20.2776L18.8429 2.014ZM18.8429 2.014C18.8342 2.01302 18.8136 2.0125 18.7883 2.01203C18.7606 2.01152 18.7221 2.01102 18.6734 2.01053C18.5761 2.00955 18.4378 2.00861 18.2643 2.00772C17.9175 2.00593 17.43 2.00433 16.8486 2.00294C15.6859 2.00015 14.1478 1.99822 12.609 1.9974C11.0701 1.99658 9.5306 1.99687 8.36508 1.99854C7.78233 1.99938 7.29303 2.00056 6.94405 2.00211C6.76958 2.00289 6.63009 2.00377 6.5315 2.00474C6.43706 2.00567 6.37479 2.00668 6.35888 2.00829M18.8429 2.014L20.889 21.1901C20.3004 21.6263 19.6165 21.9006 18.8947 21.9958L18.8942 21.9959C18.7916 22.0087 18.5489 22.0156 17.6693 22.0196C16.7869 22.0236 15.2594 22.0245 12.5817 22.0245C12.2113 22.0245 11.8626 22.0246 11.5344 22.0246C8.87947 22.0247 7.5588 22.0248 6.85407 22.0121C6.45857 22.0049 6.25405 21.9937 6.11557 21.9757C6.00886 21.9618 5.94043 21.9436 5.85845 21.9218C5.83323 21.9151 5.80672 21.908 5.77743 21.9006L5.77739 21.9006C4.05734 21.4663 2.78473 20.0147 2.58659 18.2542C2.58231 18.2171 2.57935 18.0712 2.57698 17.8135C2.57457 17.552 2.57281 17.1702 2.57164 16.6565C2.5693 15.6289 2.5693 14.0733 2.57117 11.8971L2.5768 5.72754L2.57681 5.71407L2.57813 5.71434L2.63059 5.45575C2.93895 3.91197 4.00934 2.68847 5.47655 2.20445L5.47678 2.20438C5.72778 2.12261 6.13191 2.03137 6.35888 2.00829M6.35888 2.00829L6.36563 2.07461M6.35888 2.00829C6.3587 2.00831 6.35852 2.00833 6.35835 2.00835L6.36563 2.07461M6.36563 2.07461C6.14436 2.09712 5.74495 2.18713 5.49744 2.26777L6.36563 2.07461ZM18.9197 4.01925L18.9347 4.0842C18.9993 4.06929 19.1106 4.06157 19.2547 4.06711L19.2553 4.06713C19.351 4.06995 19.4096 4.07317 19.4611 4.08114C19.5115 4.08895 19.5569 4.10161 19.6254 4.12535C19.8962 4.22044 20.1133 4.38107 20.2718 4.60361L20.2718 4.60365C20.591 5.0512 20.595 5.65841 20.2822 6.11961L20.2821 6.11964C20.2281 6.19941 20.1374 6.29169 20.0331 6.37527C19.929 6.45872 19.8158 6.52987 19.7193 6.56988L19.719 6.57C18.9837 6.87875 18.1398 6.46087 17.9436 5.69052L17.9436 5.69049C17.9219 5.60541 17.9095 5.48919 17.9082 5.37169C17.9068 5.25401 17.9165 5.14066 17.9362 5.06101L17.8715 5.04501L17.9362 5.06101C18.0576 4.57018 18.4375 4.20048 18.9349 4.08416L18.9197 4.01925ZM18.9197 4.01925C18.9929 4.00237 19.111 3.99487 19.2573 4.00049L18.9197 4.01925ZM8.41172 7.83934L8.41163 7.83943C7.47727 8.77198 6.90419 9.94358 6.71857 11.2968C6.69671 11.4581 6.68544 11.7338 6.68567 12.0129C6.68591 12.2921 6.69765 12.5687 6.72043 12.7318L6.72046 12.732C6.85229 13.6994 7.14887 14.4943 7.66807 15.2731L7.6681 15.2732C8.47676 16.4881 9.68385 17.3557 11.0741 17.7209C11.9456 17.949 12.8953 17.975 13.7759 17.7933L13.7759 17.7933C14.9106 17.5596 15.9265 17.011 16.7536 16.1819L16.7537 16.1818C17.6938 15.2416 18.2649 14.0813 18.4449 12.7417L8.41172 7.83934ZM8.41172 7.83934C9.42208 6.82707 10.7346 6.22983 12.193 6.11474C12.2883 6.10755 12.5127 6.10879 12.7428 6.11584C12.973 6.12288 13.201 6.13549 13.3038 6.14991L13.3044 6.14999M8.41172 7.83934L13.3044 6.14999M13.3044 6.14999C14.6328 6.3244 15.8174 6.90302 16.7443 7.82818C17.7049 8.78691 18.2797 9.97138 18.4542 11.3522M13.3044 6.14999L18.4542 11.3522M15.2203 8.7227L15.2206 8.72295C15.4367 8.89699 15.7894 9.261 15.956 9.48509C15.9561 9.48512 15.9561 9.48516 15.9561 9.48519L15.9026 9.52497L15.2203 8.7227ZM15.2203 8.7227C14.569 8.20468 13.7597 7.87888 12.9438 7.81021C12.0615 7.73399 11.1661 7.94166 10.4058 8.40089L10.4058 8.40095C9.84903 8.73843 9.31067 9.27683 8.9732 9.83358L8.97314 9.83367M15.2203 8.7227L8.97314 9.83367M8.97314 9.83367C8.23196 11.0608 8.1672 12.5738 8.79972 13.8618C9.41135 15.1098 10.5719 15.9614 11.9654 16.186M8.97314 9.83367L11.9654 16.186M19.0103 23.9024L19.0004 23.903M19.0103 23.9024L19.0004 23.903M19.0004 23.903C18.9981 23.9032 18.9957 23.9033 18.9931 23.9034M19.0004 23.903L18.9931 23.9034M18.9931 23.9034C18.9857 23.9037 18.9767 23.9041 18.966 23.9044M18.9931 23.9034L18.966 23.9044M18.966 23.9044C18.9372 23.9054 18.8975 23.9063 18.8474 23.9072M18.966 23.9044L18.8474 23.9072M18.8474 23.9072C18.7473 23.9091 18.6067 23.9108 18.4313 23.9125M18.8474 23.9072L18.4313 23.9125M18.4313 23.9125C18.0804 23.9158 17.5907 23.9188 17.008 23.9215M18.4313 23.9125L17.008 23.9215M17.008 23.9215C15.8424 23.9267 14.3049 23.9304 12.7617 23.9322M17.008 23.9215L12.7617 23.9322M12.7617 23.9322C11.2185 23.9339 9.66968 23.9337 8.48164 23.9313M12.7617 23.9322L8.48164 23.9313M8.48164 23.9313C7.29137 23.9288 6.46816 23.9239 6.37068 23.9167L8.48164 23.9313ZM18.4542 11.3522C18.4723 11.4976 18.4804 11.7671 18.4785 12.0418M18.4542 11.3522L18.4785 12.0418M18.4785 12.0418C18.4766 12.3162 18.4649 12.5893 18.4449 12.7415L18.4785 12.0418ZM11.9654 16.186C11.9654 16.186 11.9654 16.186 11.9655 16.186L11.9761 16.1202L11.9654 16.186ZM22.4294 5.30522C22.4226 5.27958 22.4153 5.25219 22.4075 5.22128L22.5013 18.3143C22.5256 18.1192 22.5294 17.3654 22.5294 12.0097L22.5294 10.9628C22.5297 6.05586 22.5298 5.70883 22.4492 5.38162C22.4431 5.35675 22.4365 5.33199 22.4294 5.30536L22.4294 5.30522Z" fill="#FAF5FF" stroke="#FAF5FF" stroke-width="0.133333"/>
</svg>
