<svg width="24" height="24" viewBox="0 0 24 24" fill="none" xmlns="http://www.w3.org/2000/svg">
<mask id="mask0_77_238" style="mask-type:alpha" maskUnits="userSpaceOnUse" x="0" y="0" width="24" height="24">
<rect width="24" height="24" fill="#D9D9D9"/>
</mask>
<g mask="url(#mask0_77_238)">
<path d="M4.07175 20.2032C3.44204 20.2032 2.90544 19.9814 2.46195 19.538C2.01849 19.0945 1.79675 18.5579 1.79675 17.9282V6.07166C1.79675 5.44194 2.0185 4.90534 2.462 4.46186C2.90547 4.01837 3.44206 3.79663 4.07178 3.79663H19.9283C20.558 3.79663 21.0946 4.01837 21.5381 4.46186C21.9816 4.90534 22.2033 5.44194 22.2033 6.07166V17.9282C22.2033 18.5579 21.9816 19.0945 21.5381 19.538C21.0946 19.9814 20.558 20.2032 19.9283 20.2032H4.07175ZM12 13.257L4.07175 8.25698V17.9282H19.9283V8.25698L12 13.257ZM12 11.0717L19.9283 6.07166H4.07175L12 11.0717ZM4.07175 8.25698V6.07166V17.9282V8.25698Z" fill="#FAF5FF"/>
</g>
</svg>
