<svg width="22" height="26" viewBox="0 0 22 26" fill="none" xmlns="http://www.w3.org/2000/svg">
<path fill-rule="evenodd" clip-rule="evenodd" d="M11.0969 1.57124C11.097 1.25572 11.3528 1 11.6683 1H14.5422V2.14286H12.2395L12.2345 17.3173C12.2344 17.3242 12.2343 17.331 12.2341 17.3378C12.1594 19.4049 10.4562 21.0675 8.37018 21.0675C7.07245 21.0675 5.93546 20.4235 5.23088 19.4586L5.9742 18.9158L5.23512 19.4516C4.77519 18.8172 4.50065 18.0374 4.50065 17.1898C4.50065 15.0545 6.23542 13.3175 8.37027 13.3175C8.5073 13.3175 8.6422 13.3254 8.77445 13.3403V10.5468C8.6405 10.538 8.50598 10.5331 8.37027 10.5331C8.3725 10.5331 8.37014 10.5332 8.36201 10.5336C8.35093 10.5342 8.32914 10.5352 8.29365 10.5371C8.26774 10.5386 8.23857 10.5403 8.20757 10.5421L8.2076 10.5436C8.19195 10.544 8.17632 10.5444 8.1607 10.5448C8.14428 10.5458 8.12757 10.5468 8.11075 10.5478C8.04531 10.5516 7.97762 10.5556 7.92324 10.5586C7.88961 10.5605 7.84728 10.5628 7.81368 10.5638C4.40595 10.8401 1.71427 13.7067 1.71427 17.1951C1.71427 18.9441 2.39214 20.5369 3.50208 21.7309C4.71974 23.0374 6.45288 23.8571 8.37018 23.8571C12.0365 23.8571 15.026 20.8705 15.026 17.1951V9.20813C15.026 8.99383 15.1459 8.79755 15.3366 8.69972C15.5272 8.60189 15.7566 8.61896 15.9307 8.74392C17.2299 9.67659 18.7944 10.266 20.4876 10.3749V7.58212C20.2512 7.55964 20.0199 7.52335 19.7938 7.47422C18.5166 7.20333 17.396 6.52185 16.5609 5.58852C16.5606 5.58831 16.5612 5.58873 16.5609 5.58852L16.5601 5.58765C16.5428 5.56828 16.5256 5.54881 16.5085 5.52922C15.701 4.60348 15.1741 3.43118 15.053 2.14286H14.5478V1H15.5976C15.9132 1 16.1691 1.25584 16.1691 1.57143C16.1691 2.79772 16.6195 3.91785 17.3698 4.77798C18.0562 5.56519 18.9824 6.13413 20.0322 6.3565L20.0353 6.35715C20.3614 6.42813 20.7024 6.46621 21.059 6.46621C21.3746 6.46621 21.6304 6.72204 21.6304 7.03763V10.9647C21.6304 11.2803 21.3746 11.5361 21.059 11.5361C19.2832 11.5361 17.6132 11.0679 16.1689 10.2507V17.1951C16.1689 21.5013 12.6681 25 8.37018 25C6.11989 25 4.08845 24.0366 2.66549 22.5096C1.36811 21.1139 0.571411 19.2459 0.571411 17.1951C0.571411 12.9764 3.93031 9.53259 8.11002 9.40296C8.15306 9.40043 8.19469 9.39801 8.23075 9.39602C8.27556 9.39355 8.33582 9.39027 8.37027 9.39027C8.73472 9.39027 9.08394 9.41927 9.42154 9.46437C9.70537 9.50229 9.91731 9.74442 9.91731 10.0308V14.0427C9.91731 14.2244 9.83098 14.3952 9.68474 14.5029C9.53851 14.6106 9.34979 14.6423 9.17635 14.5884C8.91562 14.5074 8.64425 14.4603 8.37027 14.4603C6.86751 14.4603 5.6435 15.6847 5.6435 17.1898C5.6435 17.7859 5.83559 18.3328 6.16041 18.7808L6.15433 18.7852C6.65874 19.4757 7.46227 19.9247 8.37018 19.9247C9.83348 19.9247 11.034 18.7585 11.0916 17.3063L11.0969 1.57124Z" fill="#FAF5FF"/>
<path d="M16.5609 5.58852C17.396 6.52185 18.5166 7.20333 19.7938 7.47422C20.0199 7.52335 20.2511 7.55964 20.4876 7.58212V10.3749C18.7944 10.266 17.2299 9.67659 15.9307 8.74392C15.7566 8.61896 15.5272 8.60189 15.3366 8.69972C15.1459 8.79755 15.026 8.99383 15.026 9.20813V17.1951C15.026 20.8705 12.0365 23.8571 8.37018 23.8571C6.45288 23.8571 4.71974 23.0374 3.50208 21.7309C2.39214 20.5369 1.71427 18.9441 1.71427 17.1951C1.71427 13.7067 4.40595 10.8401 7.81368 10.5638C7.84728 10.5628 7.88961 10.5605 7.92324 10.5586C7.97762 10.5556 8.04531 10.5516 8.11075 10.5478C8.12757 10.5468 8.14428 10.5458 8.1607 10.5448C8.17632 10.5444 8.19195 10.544 8.2076 10.5436L8.20757 10.5421C8.23857 10.5403 8.26774 10.5386 8.29365 10.5371C8.32914 10.5352 8.35093 10.5342 8.36201 10.5336C8.37014 10.5332 8.3725 10.5331 8.37027 10.5331C8.50598 10.5331 8.6405 10.538 8.77445 10.5468V13.3403C8.6422 13.3254 8.5073 13.3175 8.37027 13.3175C6.23542 13.3175 4.50065 15.0545 4.50065 17.1898C4.50065 18.0374 4.77519 18.8172 5.23512 19.4516L5.9742 18.9158L5.23088 19.4586C5.93546 20.4235 7.07245 21.0675 8.37018 21.0675C10.4562 21.0675 12.1594 19.4049 12.2341 17.3378C12.2343 17.331 12.2344 17.3241 12.2345 17.3173L12.2395 2.14286H14.5422V1H11.6683C11.3528 1 11.097 1.25572 11.0969 1.57124L11.0916 17.3063C11.034 18.7585 9.83348 19.9247 8.37018 19.9247C7.46227 19.9247 6.65874 19.4757 6.15433 18.7852L6.16041 18.7808C5.83559 18.3328 5.6435 17.7859 5.6435 17.1898C5.6435 15.6847 6.86751 14.4603 8.37027 14.4603C8.64425 14.4603 8.91562 14.5074 9.17635 14.5884C9.34979 14.6423 9.53851 14.6106 9.68474 14.5029C9.83098 14.3952 9.91731 14.2244 9.91731 14.0427V10.0308C9.91731 9.74442 9.70537 9.50229 9.42154 9.46437C9.08394 9.41927 8.73472 9.39027 8.37027 9.39027C8.33582 9.39027 8.27556 9.39356 8.23075 9.39602C8.19469 9.39801 8.15306 9.40043 8.11002 9.40296C3.93031 9.53259 0.571411 12.9764 0.571411 17.1951C0.571411 19.2459 1.36811 21.1139 2.66549 22.5096C4.08845 24.0366 6.11989 25 8.37018 25C12.6681 25 16.1689 21.5013 16.1689 17.1951V10.2507C17.6132 11.0679 19.2832 11.5361 21.059 11.5361C21.3746 11.5361 21.6304 11.2803 21.6304 10.9647V7.03763C21.6304 6.72204 21.3746 6.46621 21.059 6.46621C20.7024 6.46621 20.3614 6.42813 20.0353 6.35715L20.0322 6.3565C18.9824 6.13413 18.0562 5.56519 17.3698 4.77798C16.6195 3.91785 16.1691 2.79772 16.1691 1.57143C16.1691 1.25584 15.9132 1 15.5976 1H14.5478V2.14286H15.053C15.1741 3.43118 15.701 4.60348 16.5085 5.52922C16.5256 5.54881 16.5428 5.56828 16.5601 5.58765L16.5609 5.58852ZM16.5609 5.58852C16.5612 5.58873 16.5606 5.58831 16.5609 5.58852Z" stroke="#FAF5FF" stroke-width="0.3" stroke-linejoin="round"/>
</svg>
