<svg width="24" height="24" viewBox="0 0 24 24" fill="none" xmlns="http://www.w3.org/2000/svg">
<path d="M11.7033 0.00937351C9.75879 0.137133 7.71707 0.845283 6.10387 1.95131C4.40064 3.11939 3.0503 4.69631 2.17528 6.53604C1.69636 7.54351 1.39749 8.49258 1.19223 9.66066C1.0374 10.5367 1.00499 11.8581 1.11301 12.8729C1.25705 14.2381 1.75037 15.8734 2.41654 17.2094L2.60739 17.5854L2.16448 18.925C1.91962 19.6624 1.47671 21.0057 1.17783 21.9109C0.875355 22.8198 0.630493 23.5864 0.630493 23.6229C0.630493 23.6558 0.677305 23.7032 0.734919 23.7251C0.828543 23.7616 0.839346 23.7762 0.821341 23.8894C0.799736 24.0062 0.803337 24.0135 0.886157 23.9879C1.03379 23.9405 4.2566 22.9002 5.61775 22.4548C6.33072 22.2249 6.94288 22.035 6.97889 22.035C7.0113 22.035 7.16613 22.0971 7.32097 22.1774C8.6389 22.849 10.0433 23.2506 11.5376 23.3893C12.1282 23.4404 13.3309 23.4148 13.9106 23.3309C17.3459 22.849 20.2698 20.9254 22.0703 17.9723C22.6572 17.0086 23.2154 15.6653 23.5142 14.4973C23.7987 13.3766 23.9355 11.9859 23.8599 10.9127C23.6655 8.06185 22.578 5.53587 20.6875 3.55013C18.8547 1.62644 16.5213 0.436454 13.8638 0.0750782C13.4749 0.0239745 12.1282 -0.0198286 11.7033 0.00937351ZM13.1112 2.50615C14.3967 2.61201 15.4518 2.90038 16.5645 3.45157C18.0733 4.20352 19.3372 5.3278 20.2734 6.7587C20.9936 7.85743 21.4365 9.04012 21.6094 10.3323C21.6922 10.9456 21.6922 12.1866 21.6094 12.8145C21.0224 17.2276 17.4287 20.6297 13.068 20.9071C11.5304 21.002 10.1009 20.7465 8.70372 20.126C8.31842 19.9544 7.68106 19.604 7.48301 19.458C7.4218 19.4105 7.34258 19.3703 7.30657 19.3703C7.27416 19.3703 6.50717 19.6076 5.60694 19.8996C4.70672 20.1917 3.96493 20.4289 3.96133 20.4216C3.95413 20.4143 4.18459 19.7025 4.46906 18.8411C4.75353 17.976 4.98759 17.2276 4.98759 17.1692C4.98759 17.1108 4.92277 16.9758 4.82915 16.8407C3.32397 14.6542 2.83425 11.6355 3.56523 9.07662C3.72727 8.52178 3.8605 8.1823 4.12337 7.65302C4.84355 6.22577 5.94183 4.98103 7.29217 4.06846C8.99539 2.91498 11.1235 2.34554 13.1112 2.50615Z" fill="#FAF5FF"/>
<path d="M8.34723 5.87899C8.26441 5.90454 8.14558 5.96295 8.07716 6.0031C7.89352 6.11991 7.36058 6.69665 7.19494 6.95947C6.66561 7.79538 6.54678 8.90871 6.86366 9.99648C7.10492 10.8178 7.40019 11.4456 7.94033 12.2925C8.6245 13.3584 9.06741 13.9351 9.77679 14.6761C10.8427 15.7894 11.7393 16.4136 13.1148 16.994C14.1303 17.4248 14.8793 17.6693 15.3006 17.7131C15.5923 17.7423 16.2296 17.6401 16.6041 17.5014C17.1226 17.3116 17.7168 16.8882 17.9472 16.545C18.1777 16.1946 18.4154 15.4025 18.4442 14.8769L18.4658 14.5301L18.3541 14.3987C18.2749 14.3111 17.9508 14.114 17.2955 13.7563C15.7399 12.9094 15.5418 12.8291 15.297 12.9605C15.2358 12.9897 15.0053 13.227 14.7892 13.4825C14.1483 14.2381 14.0151 14.3695 13.907 14.3695C13.7702 14.3695 12.8736 13.9059 12.4559 13.6212C11.9697 13.2854 11.6529 13.0152 11.2532 12.5955C10.7778 12.0954 10.2629 11.3799 9.97484 10.8214L9.91002 10.69L10.1693 10.4017C10.5114 10.033 10.6518 9.81032 10.7886 9.42339C10.9291 9.02916 10.9219 8.90871 10.7166 8.36482C10.533 7.87933 10.3853 7.4778 10.1297 6.78061C9.92083 6.20751 9.76599 5.9739 9.54993 5.90454C9.34468 5.84249 8.51647 5.82424 8.34723 5.87899Z" fill="#FAF5FF"/>
</svg>
